<?xml version="1.0" standalone="no"?>
<!DOCTYPE svg PUBLIC "-//W3C//DTD SVG 20010904//EN"
 "http://www.w3.org/TR/2001/REC-SVG-20010904/DTD/svg10.dtd">
<svg version="1.0" xmlns="http://www.w3.org/2000/svg"
 width="512.000000pt" height="512.000000pt" viewBox="0 0 512.000000 512.000000"
 preserveAspectRatio="xMidYMid meet">
<metadata>
Created by potrace 1.16, written by Peter Selinger 2001-2019
</metadata>
<g transform="translate(0.000000,512.000000) scale(0.100000,-0.100000)"
fill="#000000" stroke="none">
<path d="M3151 5115 c3 -2 139 -56 304 -119 164 -63 311 -124 328 -136 19 -14
32 -19 36 -12 4 7 68 -10 181 -48 330 -111 604 -199 607 -196 4 3 7 2 -447
161 -168 59 -317 114 -332 121 -26 14 -28 19 -28 77 0 46 -7 75 -25 112 -14
28 -23 43 -21 35 3 -8 12 -39 21 -69 17 -53 15 -115 -3 -133 -5 -5 -29 0 -57
12 -205 88 -590 221 -564 195z"/>
<path d="M1615 5038 c227 -75 1183 -343 1191 -335 5 5 35 -4 -695 206 -327 94
-600 171 -605 170 -6 -1 43 -19 109 -41z"/>
<path d="M838 4569 c36 -38 53 -48 100 -58 31 -7 235 -55 452 -107 607 -144
701 -166 707 -161 9 9 -737 198 -1071 271 -142 31 -163 38 -195 68 -27 25 -26
22 7 -13z"/>
<path d="M3498 4523 c7 -3 16 -2 19 1 4 3 -2 6 -13 5 -11 0 -14 -3 -6 -6z"/>
<path d="M3530 4515 c0 -2 58 -22 129 -45 l129 -40 11 -75 c12 -82 13 -213 3
-285 -7 -42 -9 -45 -37 -45 -28 0 -30 -3 -37 -47 -3 -26 -15 -60 -26 -75 -11
-16 -25 -54 -32 -85 -19 -84 -14 -82 -119 -63 -51 10 -94 15 -97 13 -2 -3 29
-10 68 -17 126 -22 119 -18 100 -52 l-17 -30 -158 3 c-86 2 -157 1 -157 -2 0
-4 5 -11 11 -17 22 -22 12 -88 -21 -136 -31 -46 -84 -87 -114 -87 -35 0 -14
111 48 245 l41 90 0 130 c-1 112 -5 143 -28 224 -35 116 -57 160 -103 205 -61
59 -134 89 -228 94 -69 4 -90 1 -134 -18 -108 -47 -169 -158 -160 -291 6 -84
2 -85 -96 -34 -59 31 -77 35 -140 35 -102 0 -158 -22 -221 -86 -57 -57 -95
-71 -163 -61 -25 4 -50 0 -79 -13 l-43 -19 0 62 c0 34 -4 68 -9 76 -6 9 -7
-17 -4 -67 l6 -81 -32 -27 c-17 -14 -43 -46 -57 -70 -22 -37 -25 -54 -22 -109
l3 -64 -40 -30 c-26 -19 -56 -57 -84 -108 -66 -116 -70 -123 -86 -123 -24 0
-36 -35 -24 -67 5 -15 15 -30 20 -34 5 -3 -2 -21 -15 -40 -42 -58 -124 -209
-163 -303 l-38 -88 -100 6 c-55 4 -173 14 -263 22 -89 8 -181 14 -205 12 -23
-2 84 -13 238 -26 154 -13 289 -25 300 -28 12 -2 35 -31 58 -71 36 -64 38 -70
27 -104 -8 -22 -10 -53 -5 -75 3 -22 10 -120 15 -219 5 -99 13 -200 19 -225 6
-25 10 -62 11 -83 0 -49 -34 -115 -63 -122 -12 -2 -272 -18 -577 -35 -305 -17
-573 -34 -595 -39 -31 -6 -23 -7 35 -4 160 8 643 34 795 43 251 15 228 19 266
-47 18 -32 41 -85 50 -118 10 -33 18 -51 18 -40 0 11 -12 56 -27 100 -15 44
-26 88 -24 97 4 22 40 32 117 33 l60 0 8 -50 c15 -85 34 -102 77 -67 21 17 22
22 12 48 -7 16 -13 41 -14 57 -1 15 -5 27 -9 27 -9 0 -29 82 -29 117 0 15 14
66 30 113 16 46 35 117 41 157 12 72 12 73 42 73 28 0 29 -2 23 -32 -4 -18 -9
-58 -11 -88 -3 -49 -3 -51 4 -15 7 36 8 37 10 10 2 -49 54 -147 105 -198 72
-72 172 -123 306 -158 l45 -11 -46 -24 c-62 -31 -133 -112 -156 -177 -14 -39
-18 -79 -17 -165 1 -117 -2 -125 -40 -97 -11 8 -35 15 -53 15 -28 0 -49 -14
-131 -90 -62 -58 -104 -106 -116 -133 -23 -51 -27 -164 -7 -220 19 -55 22 -41
5 23 -17 64 -11 147 14 202 9 20 59 75 110 123 82 76 97 86 125 83 31 -3 32
-5 41 -60 9 -64 4 -75 -52 -97 -49 -20 -90 -73 -97 -126 -10 -63 0 -108 45
-200 29 -58 42 -101 49 -156 11 -93 36 -144 98 -199 176 -156 336 -97 302 112
-5 33 -21 87 -34 119 -50 117 -77 230 -70 289 9 67 21 51 41 -54 l14 -71 -5
59 c-2 37 -14 78 -29 109 -32 61 -32 79 -2 132 15 24 23 50 20 62 -6 22 33 72
132 168 42 42 59 53 65 43 17 -26 8 -63 -26 -119 -43 -70 -56 -126 -45 -194
21 -130 85 -196 159 -165 42 17 54 34 117 155 37 74 60 132 70 184 23 119 24
121 34 121 6 0 10 -9 10 -19 0 -11 5 -23 10 -26 6 -3 10 -16 10 -28 0 -18 -2
-19 -11 -7 -8 12 -9 10 -7 -9 2 -13 11 -29 20 -35 28 -17 52 16 84 114 16 50
34 90 40 90 16 0 24 36 17 71 -7 36 36 92 139 180 56 48 72 58 84 48 17 -14
17 -22 4 -70 -7 -27 -19 -40 -41 -49 -41 -17 -56 -47 -35 -69 15 -15 19 -14
54 4 32 17 52 42 65 80 2 6 11 4 21 -4 30 -25 15 -52 -49 -86 -52 -27 -60 -35
-60 -60 0 -21 7 -33 26 -44 24 -13 29 -12 73 15 26 16 63 41 81 57 18 15 40
27 49 27 15 0 23 42 17 90 -1 8 -3 27 -4 41 -1 14 -9 35 -17 45 -14 18 -14 18
3 5 22 -18 22 -12 -9 86 -26 81 -33 92 -84 134 -32 26 -5 14 37 -18 24 -18 37
-38 48 -81 9 -31 20 -66 25 -77 9 -20 24 -161 21 -202 0 -13 -31 -52 -73 -95
-82 -82 -61 -72 32 16 l61 57 -7 66 c-4 37 -7 85 -7 107 0 23 -6 51 -15 64
-10 15 -13 35 -9 60 4 26 0 50 -14 81 l-20 45 50 50 c27 28 74 85 106 126 31
41 90 109 131 151 l73 76 188 7 c237 8 257 12 248 40 -14 50 -48 233 -70 386
-32 218 -33 227 -28 145 6 -85 46 -362 68 -464 11 -53 12 -77 5 -81 -11 -7
-235 -20 -343 -20 -52 0 -58 2 -52 18 31 76 31 168 0 202 -71 78 -213 78 -439
0 -33 -11 -64 -20 -69 -20 -11 0 -6 40 17 145 9 39 16 91 16 116 0 25 9 80 20
122 11 42 23 110 26 151 l7 74 131 4 c138 5 133 4 305 78 60 26 78 30 93 21
14 -9 18 -8 18 3 0 11 20 26 34 26 2 0 6 -37 10 -82 10 -125 42 -175 107 -166
24 4 29 1 32 -21 2 -14 5 15 6 66 0 53 -6 120 -14 159 -9 36 -14 68 -12 71 4
3 401 -62 500 -83 24 -5 27 -10 28 -47 1 -43 3 -42 13 6 7 31 18 33 114 15
l65 -12 -5 -191 -5 -190 12 150 c7 83 14 170 14 194 l1 43 48 -7 c26 -4 44 -4
41 0 -7 6 -54 15 -553 100 -142 25 -261 47 -265 50 -12 13 26 25 69 23 44 -3
45 -2 48 30 2 22 -1 34 -12 37 -9 3 -24 7 -33 10 -12 4 -13 9 -5 17 8 8 18 5
37 -11 15 -11 31 -18 36 -15 19 11 8 55 -22 89 -29 32 -30 35 -10 35 33 0 25
32 -18 74 -39 38 -40 39 -85 27 -25 -6 -47 -11 -49 -11 -2 0 -4 119 -3 265 1
231 3 265 16 262 8 -3 183 -53 388 -111 205 -59 378 -106 385 -103 19 6 -397
132 -903 273 -158 45 -170 47 -170 39z m-642 -112 c-10 -2 -28 -2 -40 0 -13 2
-5 4 17 4 22 1 32 -1 23 -4z m-81 -9 c-3 -3 -12 -4 -19 -1 -8 3 -5 6 6 6 11 1
17 -2 13 -5z m170 -19 c77 -23 143 -72 180 -135 43 -72 42 -90 -2 -51 -81 71
-174 94 -266 67 -73 -21 -129 -71 -165 -146 -23 -48 -33 -60 -49 -58 -18 3
-20 12 -23 78 -4 89 14 142 63 193 60 62 161 82 262 52z m-249 -16 c-15 -11
-39 -35 -54 -52 -14 -18 -21 -22 -15 -11 11 22 77 84 89 84 4 0 -5 -10 -20
-21z m-97 -145 c-5 -16 -10 -21 -10 -12 -1 18 10 51 15 45 2 -1 -1 -16 -5 -33z
m372 -23 c32 -33 57 -63 57 -66 0 -4 -24 19 -52 50 -29 32 -62 61 -73 65 -15
7 -16 9 -4 9 9 1 41 -26 72 -58z m-130 28 c-24 -12 -43 -24 -43 -28 0 -15 60
-51 87 -53 15 -1 38 4 50 10 20 11 24 9 38 -19 9 -17 14 -37 11 -45 -6 -16 6
-12 34 11 9 8 23 10 35 5 11 -5 15 -9 9 -9 -7 -1 -3 -25 12 -66 13 -36 23 -78
23 -93 -2 -24 -2 -24 -6 -4 -5 26 -4 26 -38 10 -21 -10 -25 -17 -20 -37 5 -24
4 -23 -15 6 -22 32 -22 32 -43 13 -11 -11 -23 -17 -26 -15 -2 3 5 12 17 21 12
8 20 20 17 25 -4 5 -13 3 -21 -6 -17 -16 -38 -10 -69 21 -15 16 -15 19 10 42
14 13 24 27 21 30 -3 3 -15 -7 -26 -21 l-21 -26 -33 21 -33 22 26 37 26 37 30
-26 30 -27 -30 33 c-16 19 -48 48 -69 65 l-39 31 -24 -30 c-14 -16 -20 -20
-15 -9 20 39 90 94 122 95 8 0 -4 -9 -27 -21z m-256 -96 c-3 -10 -5 -2 -5 17
0 19 2 27 5 18 2 -10 2 -26 0 -35z m10 -60 c-3 -10 -5 -4 -5 12 0 17 2 24 5
18 2 -7 2 -21 0 -30z m-127 -8 l55 -28 -45 -11 c-112 -29 -170 -84 -170 -163
0 -50 19 -101 45 -123 17 -14 17 -14 7 7 -24 45 -6 150 34 194 19 21 6 26 -16
7 -12 -11 -12 -10 -3 2 6 8 26 23 45 33 18 10 26 12 18 5 -18 -16 -23 -30 -28
-91 -6 -75 31 -140 136 -237 l87 -80 -95 40 c-169 72 -212 101 -271 188 -17
23 -47 51 -67 61 -95 49 -111 112 -43 172 53 47 91 59 181 55 59 -2 87 -9 130
-31z m653 28 c-7 -2 -19 -2 -25 0 -7 3 -2 5 12 5 14 0 19 -2 13 -5z m-383 -23
c12 -7 10 -9 -8 -7 -12 0 -22 5 -22 9 0 11 12 10 30 -2z m47 -18 c13 -8 13
-93 0 -85 -5 3 -6 20 -3 38 5 26 3 36 -11 44 -10 6 -13 10 -8 11 6 0 15 -4 22
-8z m-172 -22 c10 8 19 9 32 1 16 -9 16 -10 -4 -11 -31 0 -29 -12 7 -32 37
-21 80 -107 80 -158 0 -34 -22 -80 -39 -80 -5 0 -11 22 -14 50 -5 45 -22 87
-61 160 -8 14 -16 39 -18 55 -3 17 -3 24 -1 17 4 -10 8 -10 18 -2z m1112 -42
c-3 -7 -5 -2 -5 12 0 14 2 19 5 13 2 -7 2 -19 0 -25z m31 -14 c-3 -14 -5 -12
-10 9 -3 19 -2 25 4 19 6 -6 8 -18 6 -28z m-1187 -20 c-26 -19 -28 -39 -2 -23
10 7 25 10 33 6 26 -9 52 -79 53 -137 0 -53 -1 -55 -27 -58 -32 -4 -36 -17
-10 -31 19 -10 105 -151 117 -191 4 -14 19 -47 32 -74 l25 -50 -48 41 c-53 43
-152 111 -228 156 -27 15 -46 30 -44 33 7 6 98 -36 176 -79 34 -20 62 -32 62
-28 0 5 -20 35 -45 67 -25 31 -45 53 -45 48 0 -6 6 -16 13 -23 10 -11 8 -12
-8 -3 -36 19 -135 121 -135 139 0 9 11 29 25 43 17 18 26 41 30 75 3 37 2 43
-4 25 -12 -34 -13 -5 -1 45 10 45 43 78 48 50 2 -9 -6 -23 -17 -31z m-497 -11
c-3 -16 1 -46 8 -68 l13 -40 -105 -36 c-58 -19 -112 -39 -121 -43 -17 -8 -20
-1 -35 106 -6 45 -5 48 27 67 26 16 51 21 109 21 41 0 82 5 90 10 20 13 20 14
14 -17z m1061 9 c-3 -3 -11 0 -18 7 -9 10 -8 11 6 5 10 -3 15 -9 12 -12z m573
-36 c-7 -25 -16 -46 -21 -46 -5 0 -6 -8 -2 -17 5 -14 4 -15 -6 -6 -10 10 -8
22 9 56 12 25 22 50 22 57 0 7 2 11 5 8 3 -3 0 -26 -7 -52z m-531 22 c-3 -8
-6 -5 -6 6 -1 11 2 17 5 13 3 -3 4 -12 1 -19z m-169 -160 c17 -22 32 -45 32
-49 0 -15 -58 -39 -93 -39 -67 0 -112 87 -99 195 l5 44 61 -55 c33 -30 76 -74
94 -96z m855 115 c-7 -2 -19 -2 -25 0 -7 3 -2 5 12 5 14 0 19 -2 13 -5z
m-2029 -110 c6 -42 6 -43 -41 -73 l-48 -29 -9 30 c-12 40 7 100 47 146 l32 36
6 -34 c4 -19 9 -53 13 -76z m1979 100 c-7 -2 -19 -2 -25 0 -7 3 -2 5 12 5 14
0 19 -2 13 -5z m-803 -38 c13 -14 21 -25 18 -25 -2 0 -15 11 -28 25 -13 14
-21 25 -18 25 2 0 15 -11 28 -25z m103 -26 c-8 -29 -13 -23 -13 14 0 22 3 28
9 18 5 -7 6 -22 4 -32z m87 -42 c-14 -51 -43 -92 -59 -83 -16 10 -14 41 4 56
8 7 25 30 37 52 26 46 35 34 18 -25z m611 33 l36 -29 32 20 c40 24 40 17 0
-12 l-31 -22 -44 32 c-48 33 -65 32 -95 -6 -13 -17 -13 -17 4 -4 16 13 20 13
28 0 18 -28 10 -58 -21 -74 -27 -14 -30 -14 -40 4 -8 15 -6 31 7 63 9 24 21
46 26 49 21 15 64 5 98 -21z m69 10 c-8 -5 -22 -9 -30 -9 -10 0 -8 3 5 9 27
12 43 12 25 0z m-1750 -13 c0 -4 -119 -100 -139 -112 -10 -6 -12 -4 -6 5 15
24 -64 1 -155 -45 -90 -45 -154 -91 -145 -105 2 -4 -12 -23 -33 -43 -41 -40
-98 -113 -124 -161 -13 -23 -17 -26 -18 -12 0 10 15 39 34 65 18 25 52 79 75
119 23 39 44 72 46 72 5 0 -8 -37 -25 -73 -11 -22 -11 -22 5 -2 9 11 29 41 45
67 50 82 180 162 326 202 87 24 114 29 114 23z m-21 -102 c-19 -64 -39 -104
-39 -79 0 6 -7 19 -16 30 -15 18 -15 18 -5 -3 17 -34 14 -39 -36 -69 -26 -15
-68 -47 -93 -70 -30 -28 -58 -45 -85 -49 -65 -12 -91 -31 -136 -100 -24 -36
-47 -65 -51 -65 -4 0 -7 -3 -6 -7 2 -5 -20 -51 -48 -103 -28 -52 -64 -126 -79
-163 -27 -63 -30 -68 -54 -63 -24 6 -24 5 -6 -5 11 -7 21 -13 23 -14 1 -1 -7
-28 -18 -60 -11 -32 -20 -68 -20 -81 0 -21 -2 -21 -35 -11 -44 13 -51 36 -37
117 10 55 81 219 115 264 13 17 14 16 12 -15 -1 -19 -5 -43 -9 -54 l-8 -20 13
20 c6 11 26 36 43 55 25 28 26 30 4 12 l-26 -24 3 35 c2 20 38 100 85 186 72
132 88 155 124 176 51 29 147 67 154 61 2 -3 -8 -27 -23 -53 -35 -60 -24 -51
40 35 35 47 64 73 95 88 25 12 65 40 90 62 25 22 46 39 47 38 1 -1 -7 -33 -18
-71z m948 8 c-4 -3 1 -16 10 -27 18 -21 18 -21 -3 -3 -11 9 -25 14 -29 10 -5
-5 -3 0 4 10 7 9 16 17 19 17 3 0 2 -3 -1 -7z m-742 -24 c79 -28 88 -33 164
-96 74 -61 96 -96 105 -168 l6 -50 -13 51 c-38 147 -132 200 -344 197 -62 -1
-113 3 -113 8 0 5 22 20 49 34 27 13 52 29 56 35 9 14 23 13 90 -11z m1315 11
c0 -5 -5 -10 -11 -10 -5 0 -7 5 -4 10 3 6 8 10 11 10 2 0 4 -4 4 -10z m109
-21 c-8 -5 -26 -7 -40 -5 -14 3 -32 0 -40 -7 -11 -10 -11 -9 0 6 7 9 23 17 35
17 11 0 28 5 36 10 19 12 28 -9 9 -21z m-640 -18 c-6 -18 -13 -30 -15 -28 -2
2 1 18 7 36 6 18 13 30 15 28 2 -2 -1 -18 -7 -36z m-98 8 c-23 -19 -23 -20 -5
-40 33 -36 56 -44 71 -23 7 10 13 15 13 11 0 -12 -59 -125 -68 -131 -10 -6
-129 99 -143 127 -9 18 -9 20 1 10 10 -9 18 -8 36 3 24 17 106 61 114 62 3 1
-6 -8 -19 -19z m799 17 c0 -3 -4 -8 -10 -11 -5 -3 -10 -1 -10 4 0 6 5 11 10
11 6 0 10 -2 10 -4z m-950 -26 c6 -11 8 -20 6 -20 -3 0 -10 9 -16 20 -6 11 -8
20 -6 20 3 0 10 -9 16 -20z m757 -80 c-2 -8 -9 4 -15 26 -7 23 -9 50 -5 60 5
14 9 8 15 -26 5 -25 7 -52 5 -60z m20 78 c-3 -8 -6 -5 -6 6 -1 11 2 17 5 13 3
-3 4 -12 1 -19z m-60 -2 c2 -1 4 -13 5 -26 3 -21 -4 -25 -67 -41 -38 -10 -97
-21 -131 -25 l-61 -6 -7 32 c-3 18 -6 43 -6 57 l0 24 133 -7 c72 -3 133 -7
134 -8z m-1652 -4 c-6 -5 -32 -17 -60 -27 -27 -9 -74 -30 -104 -46 -30 -16
-56 -27 -59 -25 -7 8 74 57 135 82 57 23 106 32 88 16z m182 -136 c-41 -46
-93 -108 -115 -137 -22 -30 -69 -81 -104 -115 -64 -62 -198 -169 -198 -159 0
20 107 160 152 198 l53 46 -48 -17 c-45 -16 -53 -24 -104 -107 -75 -121 -150
-277 -167 -350 -16 -66 -27 -165 -19 -165 2 0 39 28 81 61 115 93 107 87 94
63 -17 -33 -132 -135 -169 -150 -69 -29 -121 -12 -154 52 -13 24 -21 45 -18
48 3 3 31 -3 62 -14 31 -11 64 -20 74 -19 10 0 0 6 -22 13 -22 6 -41 19 -43
28 -10 53 124 360 225 513 75 114 106 141 175 150 29 4 66 17 83 30 16 12 45
30 62 39 l33 16 -10 -25 c-28 -73 -99 -165 -225 -289 -61 -61 -64 -65 -25 -37
58 40 350 356 350 378 0 14 22 33 38 33 7 0 -20 -38 -61 -84z m1488 65 c-13
-13 -195 -85 -200 -79 -2 2 37 22 88 45 90 40 131 53 112 34z m-1187 -23 c35
-9 61 -25 99 -64 54 -54 76 -99 26 -52 -39 35 -82 62 -90 54 -3 -3 -1 -6 6 -6
6 0 33 -20 60 -45 26 -25 50 -43 52 -40 3 2 6 -6 7 -18 15 -121 -21 -160 -206
-221 -123 -41 -145 -43 -172 -16 -19 19 -20 19 -20 1 0 -34 43 -85 83 -96 l37
-10 -22 -24 c-22 -22 -21 -22 17 3 48 31 113 47 100 25 -32 -53 -78 -113 -138
-176 -70 -73 -71 -74 -111 -68 l-41 6 36 -20 c19 -11 42 -28 50 -37 13 -17 13
-17 -11 -1 -26 18 -91 22 -125 7 -15 -7 -8 -9 30 -11 l50 -2 -67 -15 c-38 -8
-68 -18 -68 -22 0 -3 22 -12 48 -18 53 -14 157 -60 151 -67 -3 -2 -22 0 -44 5
-22 5 -53 9 -70 9 -20 -1 -23 -3 -10 -6 120 -27 122 -28 165 -112 35 -70 180
-267 210 -286 8 -5 4 -15 -12 -32 -42 -45 -53 -46 -115 -12 l-58 32 45 -48
c25 -27 35 -42 23 -34 -90 58 -276 189 -314 220 -25 21 -65 66 -89 101 -48 69
-40 65 66 -32 99 -91 228 -177 310 -206 l69 -25 -36 38 c-20 21 -64 75 -98
121 -34 45 -64 82 -67 82 -7 0 29 -51 74 -107 19 -24 31 -43 27 -43 -4 0 -45
23 -91 51 -102 61 -183 134 -235 211 -22 32 -42 58 -44 58 -2 0 3 -16 11 -35
8 -19 11 -35 8 -35 -14 0 -94 56 -99 69 -3 7 23 59 58 115 67 107 105 192 132
296 9 34 29 85 45 114 16 28 36 71 45 95 8 25 28 61 43 80 15 20 39 66 53 103
26 65 25 85 -1 54 -6 -8 -17 -13 -24 -10 -8 3 -23 -10 -34 -28 -17 -25 -22
-29 -22 -14 0 32 -57 -28 -92 -99 -17 -32 -40 -75 -53 -95 -12 -19 -28 -52
-34 -73 -16 -47 -7 -111 14 -103 12 4 13 2 2 -14 -16 -27 -23 -25 -36 11 -19
56 -12 79 70 233 100 188 163 257 259 287 39 11 116 10 168 -3z m1421 -55 c20
-96 24 -139 17 -169 -6 -21 -12 -25 -38 -22 -45 4 -66 44 -74 145 l-7 82 34
15 c19 8 39 15 44 15 6 1 17 -29 24 -66z m-1199 2 c22 -23 25 -37 29 -111 2
-67 0 -84 -11 -84 -10 0 -17 24 -26 80 -6 43 -21 98 -32 120 -19 37 -19 40 -3
32 10 -6 29 -22 43 -37z m47 -77 c-3 -7 -5 -2 -5 12 0 14 2 19 5 13 2 -7 2
-19 0 -25z m318 -82 c-3 -33 -13 -72 -21 -86 -9 -15 -12 -17 -8 -5 4 11 9 56
10 100 4 99 2 94 15 71 7 -11 9 -41 4 -80z m75 43 c0 -20 -8 -46 -17 -58 -18
-21 -18 -21 -19 38 -1 52 1 59 17 58 15 -1 19 -9 19 -38z m-124 -124 c-20 -65
-20 -76 -1 -51 8 11 15 15 15 9 0 -13 -30 -39 -30 -27 0 5 -5 2 -11 -6 -9 -12
-10 -11 -4 5 4 11 14 65 24 120 14 90 16 95 19 52 2 -26 -4 -72 -12 -102z
m-266 55 l-11 -25 6 25 c2 14 6 39 6 55 l2 30 4 -30 c2 -17 -1 -42 -7 -55z
m-573 38 c-3 -7 -5 -2 -5 12 0 14 2 19 5 13 2 -7 2 -19 0 -25z m620 0 c-3 -7
-5 -2 -5 12 0 14 2 19 5 13 2 -7 2 -19 0 -25z m363 -6 c0 -10 -6 -27 -14 -38
-13 -17 -13 -15 -3 19 13 41 17 46 17 19z m-263 -34 c-3 -7 -5 -2 -5 12 0 14
2 19 5 13 2 -7 2 -19 0 -25z m-57 -12 c8 -3 2 -4 -13 -1 -16 3 -26 2 -23 -3 3
-5 1 -22 -4 -38 l-8 -29 -1 30 c-1 24 -3 27 -12 15 -13 -18 -9 -5 10 32 11 22
16 25 25 14 6 -8 18 -16 26 -20z m111 4 c-13 -11 -29 -20 -37 -20 -8 0 -15
-11 -15 -27 l-2 -28 -4 27 c-2 15 -12 29 -21 31 -9 3 -1 5 19 6 19 0 44 8 55
16 28 21 33 17 5 -5z m-284 -22 c-3 -8 -6 -5 -6 6 -1 11 2 17 5 13 3 -3 4 -12
1 -19z m-708 -75 c-34 -49 -86 -119 -116 -158 l-54 -70 67 70 c58 61 64 65 44
30 -13 -22 -41 -62 -62 -89 -38 -49 -44 -71 -11 -45 42 34 -53 -72 -112 -124
-55 -49 -65 -55 -65 -37 0 44 32 158 63 222 29 60 42 73 132 141 55 41 116 91
134 111 19 20 36 36 38 36 1 0 -25 -39 -58 -87z m1177 -6 c-14 -47 -26 -93
-27 -103 0 -11 -5 -5 -10 13 -7 26 -4 42 21 95 16 34 30 69 30 77 0 8 3 12 6
8 3 -3 -6 -44 -20 -90z m-400 58 c-4 -14 -17 -50 -30 -80 -18 -39 -30 -54 -48
-57 -21 -4 -21 -5 -4 -13 11 -5 26 -3 38 4 16 10 19 10 12 -1 -30 -50 -95
-124 -164 -187 l-82 -74 41 54 c22 30 41 58 41 63 0 4 9 6 20 3 24 -6 36 8 14
17 -24 9 -6 26 27 26 16 0 29 5 29 10 0 6 -10 10 -22 10 -20 0 -21 1 -3 20 10
11 28 20 39 20 21 1 21 1 -1 13 l-22 12 25 40 c13 22 29 63 35 92 11 46 15 53
37 53 21 0 23 -3 18 -25z m-91 -44 c-21 -43 -29 -39 -8 4 9 19 18 33 21 31 2
-2 -4 -18 -13 -35z m106 -8 c-11 -21 -20 -35 -21 -31 0 12 33 78 38 74 2 -2
-6 -21 -17 -43z m199 -14 c-7 -24 -25 -55 -43 -72 -25 -23 -28 -30 -17 -37 10
-6 23 -2 40 13 l25 22 -24 -27 c-13 -15 -29 -24 -36 -22 -17 7 -47 -25 -41
-43 4 -8 1 -11 -5 -7 -6 3 -27 -9 -47 -27 -21 -19 -32 -28 -25 -20 6 7 9 21 6
30 -4 13 -3 13 5 2 8 -11 12 -9 23 10 11 22 11 23 -4 10 -10 -7 -17 -10 -17
-5 0 5 -8 0 -18 -11 -9 -11 -28 -29 -42 -40 l-25 -20 21 25 c40 47 39 51 -5
44 -39 -6 -41 -5 -41 19 0 27 19 36 80 37 35 1 35 1 13 17 -28 19 -31 38 -4
23 30 -15 33 -12 11 10 -20 20 -26 40 -12 40 4 0 13 -9 20 -20 14 -22 48 -27
55 -7 4 9 8 9 16 -2 18 -27 58 2 78 58 21 60 29 60 13 0z m-63 -11 c-3 -8 -6
-5 -6 6 -1 11 2 17 5 13 3 -3 4 -12 1 -19z m-267 -11 c0 -2 -15 -16 -32 -33
l-33 -29 29 33 c28 30 36 37 36 29z m257 -29 c-3 -8 -6 -5 -6 6 -1 11 2 17 5
13 3 -3 4 -12 1 -19z m212 -70 c21 -63 25 -123 11 -168 -7 -22 -8 -20 -9 15
-1 22 -8 65 -16 95 -14 52 -20 120 -11 120 2 0 14 -28 25 -62z m-1042 -50 c-9
-12 -19 -41 -23 -63 l-8 -40 -6 35 c-4 28 0 42 19 67 28 36 41 37 18 1z m-129
-113 c-67 -69 -74 -80 -80 -128 -4 -29 -10 -66 -13 -82 -5 -25 -1 -36 22 -60
26 -28 27 -28 3 -14 -14 9 -31 29 -39 44 l-14 28 -18 -24 c-11 -13 -33 -53
-51 -87 -61 -123 -164 -154 -242 -73 -25 26 -27 34 -21 70 4 23 10 41 14 41 4
0 20 -14 37 -31 16 -17 41 -40 56 -50 25 -18 30 -19 55 -5 27 14 91 75 169
161 32 36 35 44 30 82 -5 42 -4 44 72 122 42 45 81 81 85 81 5 0 -24 -34 -65
-75z m961 -69 c8 -20 9 -32 1 -40 -5 -5 -10 -27 -10 -47 l0 -37 -87 -7 c-49
-4 -117 -11 -153 -15 -69 -10 -80 -5 -80 35 0 29 98 123 200 192 l85 58 16
-55 c9 -30 22 -68 28 -84z m-199 99 c0 -2 -13 -11 -30 -20 -38 -19 -40 -11 -2
9 31 17 32 18 32 11z m-77 -109 c-67 -66 -85 -89 -80 -105 3 -12 1 -24 -4 -27
-5 -3 -9 7 -9 22 0 21 19 47 83 111 46 46 86 83 89 83 4 0 -32 -38 -79 -84z
m-13 59 c0 -6 -56 -35 -67 -35 -4 1 8 9 27 20 39 22 40 22 40 15z m-617 -63
c-15 -20 -31 -28 -66 -32 -25 -3 -43 -2 -41 2 3 4 23 8 45 8 34 0 43 5 57 29
9 16 19 28 21 25 3 -2 -5 -17 -16 -32z m1578 13 c47 -25 69 -62 69 -119 0 -74
-36 -144 -110 -213 -34 -32 -97 -103 -140 -158 -83 -107 -136 -162 -146 -152
-3 3 32 48 78 99 46 51 94 110 106 130 13 20 52 60 88 88 48 38 72 65 90 103
26 56 32 134 13 168 -13 26 -29 14 -75 -56 -17 -27 -49 -66 -70 -85 -33 -30
-35 -30 -13 -5 39 45 61 83 55 94 -4 5 -29 17 -57 26 -65 22 -119 16 -223 -24
-44 -17 -81 -30 -82 -28 -1 1 -5 14 -9 28 -6 24 -2 28 52 51 168 74 297 92
374 53z m-1076 -7 c-11 -6 -40 -29 -65 -52 -38 -34 -37 -32 6 12 29 28 58 52
66 52 7 0 4 -6 -7 -12z m586 -29 c-13 -10 -28 -19 -35 -19 -6 0 -2 6 9 12 11
6 24 18 28 25 5 8 12 12 15 8 4 -4 -4 -15 -17 -26z m63 -320 c-6 -164 -6 -166
17 -188 l23 -21 -25 -1 -24 -1 25 -7 c17 -5 4 -7 -37 -7 -36 1 -62 5 -60 11 2
5 0 14 -5 20 -5 5 -21 35 -36 65 -16 30 -47 87 -70 125 -22 39 -44 84 -47 100
-6 29 -6 29 10 -5 9 -19 35 -59 57 -89 39 -51 87 -150 88 -178 0 -17 15 -24
34 -17 14 5 15 36 13 251 l-2 245 23 -68 c21 -64 22 -80 16 -235z m-1240 241
c10 -13 9 -13 -6 -1 -10 7 -18 21 -17 30 0 13 1 14 6 1 3 -8 11 -22 17 -30z
m1476 -4 c0 -5 -69 -46 -78 -46 -6 1 69 50 76 50 1 0 2 -2 2 -4z m-940 -31
c-14 -8 -29 -14 -35 -14 -5 0 1 6 15 14 14 8 30 14 35 14 6 0 -1 -6 -15 -14z
m-961 -32 c0 -5 -4 -17 -9 -28 -8 -18 -9 -17 -9 8 -1 15 4 27 9 27 6 0 10 -3
9 -7z m1418 -30 c-3 -10 -5 -4 -5 12 0 17 2 24 5 18 2 -7 2 -21 0 -30z m-211
-26 c-10 -7 -48 -34 -85 -61 -36 -27 -57 -38 -46 -26 20 23 133 101 144 99 3
0 -2 -6 -13 -12z m-875 -49 c7 -13 1 -21 -29 -38 l-37 -22 25 27 25 28 -23 -6
c-19 -4 -22 -2 -17 11 4 9 10 26 13 36 5 19 5 19 19 0 8 -10 19 -26 24 -36z
m-292 -257 c-1 -162 -1 -165 -16 -121 -9 27 -17 101 -20 185 l-6 140 22 -19
c20 -18 21 -28 20 -185z m1836 189 c-4 -6 -39 -27 -78 -46 -87 -44 -77 -28 14
21 72 39 73 39 64 25z m-1485 -13 c0 -1 -25 -27 -56 -57 -31 -30 -52 -46 -46
-34 15 29 102 107 102 91z m-248 -98 c-4 -45 -46 -201 -62 -228 -11 -18 -14
217 -4 267 6 30 7 30 38 17 29 -13 31 -17 28 -56z m354 -109 c40 -44 43 -50
16 -30 -18 14 -43 41 -54 60 -12 19 -19 33 -17 30 3 -3 28 -30 55 -60z m618
-51 c-2 -4 3 -12 11 -19 13 -11 10 -16 -22 -38 -21 -14 -52 -38 -70 -54 l-31
-30 -12 22 c-10 19 -6 26 32 64 24 24 52 48 63 54 16 9 18 13 8 23 -7 7 -13
18 -13 24 0 5 9 -1 19 -15 11 -13 18 -27 15 -31z m604 2 c45 -48 82 -101 82
-116 0 -5 -9 4 -20 22 -24 41 -86 73 -120 62 -14 -4 -33 -7 -44 -8 -15 -1 -16
2 -6 13 6 8 21 17 33 19 17 3 16 5 -7 6 -24 1 -27 3 -16 16 21 25 68 18 98
-14z m-1093 -172 c37 -25 68 -54 71 -67 4 -12 23 -36 43 -52 l36 -30 7 22 c4
15 6 5 6 -27 -1 -27 -3 -40 -5 -29 -2 12 -22 36 -44 54 -22 17 -44 42 -49 55
-5 12 -35 37 -67 55 -90 50 -153 101 -179 146 -40 68 -27 65 46 -11 39 -40
100 -92 135 -116z m764 114 c-89 -148 -171 -243 -210 -243 -20 0 -20 1 7 22
16 12 45 36 65 54 36 31 36 33 20 56 -9 14 -32 38 -51 55 l-35 31 40 7 c30 5
157 42 183 54 2 0 -7 -16 -19 -36z m-227 -18 c1 -9 -110 -93 -124 -94 -24 -2
-1 34 45 69 49 38 77 47 79 25z m491 -39 c-5 -37 -1 -50 22 -80 15 -20 22 -36
16 -36 -6 0 -11 4 -11 8 0 4 -18 19 -40 32 -46 29 -48 35 -18 43 12 4 19 9 16
12 -6 6 10 65 17 65 1 0 0 -20 -2 -44z m-393 -74 c0 -16 -52 -67 -84 -84 -20
-10 -20 -9 -4 8 16 17 15 20 -22 61 -46 49 -48 56 -18 77 21 15 24 14 66 -27
l43 -42 -28 -22 c-15 -13 -23 -23 -17 -23 6 0 21 11 34 25 25 27 26 25 -29 90
-18 20 -12 17 17 -10 23 -21 42 -45 42 -53z m-1198 46 c-7 -7 -12 -8 -12 -2 0
6 3 14 7 17 3 4 9 5 12 2 2 -3 -1 -11 -7 -17z m-18 -90 c6 -27 5 -28 -29 -28
-19 0 -35 3 -35 6 0 4 10 24 22 46 24 41 26 40 42 -24z m53 -25 c11 -35 16
-63 12 -63 -5 0 -16 26 -24 58 -9 31 -19 64 -21 72 -3 10 -2 11 4 5 5 -5 18
-38 29 -72z m962 13 c46 -46 52 -58 49 -87 -2 -29 -7 -34 -25 -32 -17 2 -23
-2 -23 -17 0 -43 -122 -83 -136 -45 -12 31 53 235 75 235 4 0 30 -24 60 -54z
m-1189 -62 c0 -8 -4 -12 -10 -9 -5 3 -10 10 -10 16 0 5 5 9 10 9 6 0 10 -7 10
-16z m1383 -84 c3 -41 2 -66 -2 -55 -11 27 -21 163 -11 144 4 -7 10 -48 13
-89z m-543 65 c0 -2 -17 -13 -37 -24 -101 -52 -140 -129 -153 -307 -5 -70 -12
-129 -14 -131 -2 -2 -1 56 1 129 7 156 24 216 80 270 49 48 123 86 123 63z
m-573 -31 c8 -20 -17 -36 -34 -22 -10 8 -10 14 -2 24 15 18 28 18 36 -2z m600
-6 c-3 -8 -6 -5 -6 6 -1 11 2 17 5 13 3 -3 4 -12 1 -19z m580 0 c-3 -8 -6 -5
-6 6 -1 11 2 17 5 13 3 -3 4 -12 1 -19z m-628 -5 c-7 -10 -21 -27 -31 -38 -9
-11 -31 -45 -48 -75 -17 -30 -28 -44 -24 -30 11 43 57 121 82 141 31 24 38 24
21 2z m1068 -25 c-3 -7 -5 -2 -5 12 0 14 2 19 5 13 2 -7 2 -19 0 -25z m-1010
-20 c-3 -7 -5 -2 -5 12 0 14 2 19 5 13 2 -7 2 -19 0 -25z m580 10 c-3 -8 -6
-5 -6 6 -1 11 2 17 5 13 3 -3 4 -12 1 -19z m-243 -40 c5 -23 3 -25 -14 -21
-23 6 -28 -12 -6 -20 8 -3 20 -16 27 -29 12 -22 12 -22 -15 -5 -36 24 -33 11
7 -26 l32 -30 -28 7 c-26 6 -27 5 -25 -25 1 -17 6 -33 10 -35 5 -3 5 -10 2
-16 -4 -6 -10 -5 -16 3 -6 10 -8 7 -6 -11 2 -14 14 -30 28 -38 25 -13 25 -14
-7 -8 -40 7 -44 -11 -11 -57 l23 -32 -27 17 c-26 17 -27 17 -33 -13 -5 -20 -1
-39 10 -57 l16 -27 -21 24 c-18 21 -23 23 -31 10 -8 -11 -9 -10 -5 6 21 78 37
219 33 279 -6 63 -4 71 21 102 14 18 27 32 28 31 1 -1 4 -14 8 -29z m92 -92
c3 -20 1 -42 -5 -53 -10 -16 -11 -15 -6 7 4 14 1 38 -4 53 -6 16 -7 27 -1 27
5 0 12 -15 16 -34z m145 -19 c-6 -6 -11 -19 -11 -28 0 -10 -4 -20 -9 -23 -4
-3 -6 6 -3 19 2 14 8 28 13 31 5 3 10 15 10 27 1 19 2 19 6 3 3 -10 0 -23 -6
-29z m-70 -10 l-24 -22 19 27 c10 14 21 24 23 22 3 -3 -6 -15 -18 -27z m-371
-12 c0 -3 -39 -47 -86 -97 -65 -71 -97 -115 -132 -185 -26 -51 -51 -94 -57
-97 -13 -4 75 168 114 224 46 66 161 178 161 155z m417 -88 c-4 -41 -24 -87
-39 -87 -4 0 -3 10 2 23 5 12 14 41 20 65 14 54 21 54 17 -1z m-347 -5 c0 -5
-7 -17 -15 -28 -14 -18 -14 -17 -4 9 12 27 19 34 19 19z m210 -53 c-7 -11 -14
-18 -17 -15 -3 3 0 12 7 21 18 21 23 19 10 -6z m-275 -59 c-20 -38 -19 -127 1
-187 20 -59 59 -113 83 -113 39 0 90 86 92 157 1 26 3 31 6 14 3 -13 2 -43 -2
-66 -8 -55 -63 -115 -104 -115 -53 0 -99 77 -108 179 -5 55 -2 76 15 114 12
26 23 47 27 47 3 0 -1 -13 -10 -30z m-404 -73 c-10 -9 -11 -8 -5 6 3 10 9 15
12 12 3 -3 0 -11 -7 -18z m9 -112 c25 -27 84 -34 121 -15 25 14 24 -1 -2 -29
-17 -18 -30 -21 -66 -19 -59 4 -82 32 -88 108 -4 46 -3 49 4 17 4 -20 18 -49
31 -62z m-69 23 c-4 -35 -6 -38 -9 -15 -3 26 3 57 10 57 2 0 1 -19 -1 -42z
m-21 -13 c0 -14 16 -54 35 -91 19 -36 35 -72 35 -80 0 -8 5 -14 11 -14 8 0 7
-5 -1 -15 -15 -18 -6 -30 25 -38 19 -5 19 -5 -1 -12 -28 -9 -21 -49 7 -42 23
6 24 -2 2 -18 -22 -16 -7 -38 20 -29 22 6 22 6 2 -9 -20 -15 -19 -16 13 -49
43 -45 41 -61 -2 -19 l-33 32 -27 -33 c-31 -40 -35 -29 -5 14 17 24 19 32 9
41 -10 9 -11 9 -6 0 3 -6 2 -14 -4 -18 -6 -4 -10 6 -10 23 0 55 -22 142 -36
142 -8 0 -14 5 -14 10 0 6 7 10 15 10 12 0 7 17 -21 72 -30 59 -35 79 -31 112
5 37 4 39 -9 22 -8 -11 -14 -33 -14 -48 0 -16 -8 -43 -17 -61 l-18 -32 -3 49
c-3 43 0 52 29 82 35 36 49 36 49 -1z m71 -87 c13 -11 17 -16 9 -12 -24 11
-60 46 -60 58 0 5 6 2 13 -8 7 -10 24 -27 38 -38z m176 20 c-3 -8 -6 -5 -6 6
-1 11 2 17 5 13 3 -3 4 -12 1 -19z m-331 -76 c4 -26 17 -67 29 -92 12 -25 25
-61 29 -80 l6 -35 -12 30 c-6 17 -20 43 -31 58 -23 34 -47 109 -47 149 0 44
18 24 26 -30z m370 -199 c-5 -6 -36 87 -35 106 1 9 10 -11 20 -43 11 -33 17
-61 15 -63z m-299 -70 c-3 -10 -5 -2 -5 17 0 19 2 27 5 18 2 -10 2 -26 0 -35z
m361 -119 c4 -55 2 -63 -19 -78 -27 -19 -33 -13 -44 49 -4 21 -13 52 -21 66
-13 25 -12 31 14 69 l27 42 19 -43 c11 -24 22 -72 24 -105z m-282 -42 c99 -91
207 -121 258 -73 36 34 33 6 -3 -30 -54 -53 -140 -33 -238 55 -51 46 -93 115
-93 152 1 10 7 1 15 -21 8 -23 34 -58 61 -83z m19 82 c9 -15 12 -23 6 -20 -11
7 -35 46 -28 46 3 0 12 -12 22 -26z m51 -66 l29 -33 -32 29 c-31 28 -38 36
-30 36 2 0 16 -15 33 -32z"/>
<path d="M3028 4063 l-37 -38 20 -40 c27 -54 29 -56 68 -39 30 13 33 17 27 45
-3 16 -14 48 -23 70 l-18 40 -37 -38z"/>
<path d="M2297 3990 c-4 -14 -6 -38 -6 -55 1 -27 2 -26 10 10 11 45 7 85 -4
45z"/>
<path d="M2732 3800 c0 -19 2 -27 5 -17 2 9 2 25 0 35 -3 9 -5 1 -5 -18z"/>
<path d="M2596 3858 c12 -40 26 -56 19 -23 -4 25 -3 27 6 12 6 -10 8 -30 5
-44 -5 -16 -3 -22 3 -18 7 3 8 0 5 -9 -9 -23 -13 -20 -34 27 -12 26 -20 34
-20 22 0 -11 9 -35 20 -53 18 -29 23 -32 36 -21 17 14 15 50 -5 102 -13 34
-46 38 -35 5z"/>
<path d="M1599 3245 c-20 -13 -39 -31 -43 -40 -5 -14 41 16 89 57 21 18 -13 7
-46 -17z"/>
<path d="M2948 3614 c-16 -8 -28 -19 -28 -24 0 -10 107 -100 119 -100 4 0 15
16 25 36 l17 36 -38 34 c-43 37 -56 40 -95 18z"/>
<path d="M2071 3042 c-11 -21 -22 -56 -25 -77 -3 -22 -3 -33 0 -25 16 37 51
140 48 140 -2 0 -12 -17 -23 -38z"/>
<path d="M2150 2466 c0 -2 8 -10 18 -17 15 -13 16 -12 3 4 -13 16 -21 21 -21
13z"/>
<path d="M2658 3053 c-20 -5 -25 -33 -5 -33 26 0 87 21 87 30 0 10 -50 12 -82
3z"/>
<path d="M3028 2273 c6 -2 18 -2 25 0 6 3 1 5 -13 5 -14 0 -19 -2 -12 -5z"/>
<path d="M1872 4231 c-7 -21 -12 -45 -11 -52 0 -8 7 8 15 35 9 26 13 50 11 52
-2 2 -9 -13 -15 -35z"/>
<path d="M1852 4130 c0 -19 2 -27 5 -17 2 9 2 25 0 35 -3 9 -5 1 -5 -18z"/>
<path d="M3318 3943 c7 -3 16 -2 19 1 4 3 -2 6 -13 5 -11 0 -14 -3 -6 -6z"/>
<path d="M3351 3936 c7 -7 221 -48 225 -43 2 2 -44 14 -103 26 -109 21 -130
24 -122 17z"/>
<path d="M3598 3883 c7 -3 16 -2 19 1 4 3 -2 6 -13 5 -11 0 -14 -3 -6 -6z"/>
<path d="M3418 3773 c7 -3 16 -2 19 1 4 3 -2 6 -13 5 -11 0 -14 -3 -6 -6z"/>
<path d="M3315 3304 c-111 -78 -184 -137 -105 -84 128 86 244 172 228 170 -2
-1 -57 -39 -123 -86z"/>
<path d="M4553 2980 c0 -36 2 -50 4 -32 2 17 2 47 0 65 -2 17 -4 3 -4 -33z"/>
<path d="M675 2920 c10 -11 20 -20 23 -20 3 0 -3 9 -13 20 -10 11 -20 20 -23
20 -3 0 3 -9 13 -20z"/>
<path d="M4543 2845 c0 -33 2 -45 4 -27 2 18 2 45 0 60 -2 15 -4 0 -4 -33z"/>
<path d="M4533 2720 c0 -36 2 -50 4 -32 2 17 2 47 0 65 -2 17 -4 3 -4 -33z"/>
<path d="M4523 2590 c0 -30 2 -43 4 -27 2 15 2 39 0 55 -2 15 -4 2 -4 -28z"/>
<path d="M4513 2485 c0 -27 2 -38 4 -22 2 15 2 37 0 50 -2 12 -4 0 -4 -28z"/>
<path d="M4503 2380 c0 -30 2 -43 4 -27 2 15 2 39 0 55 -2 15 -4 2 -4 -28z"/>
<path d="M4493 2260 c0 -36 2 -50 4 -32 2 17 2 47 0 65 -2 17 -4 3 -4 -33z"/>
<path d="M1631 2174 c0 -21 4 -48 9 -59 5 -12 6 1 3 35 -7 66 -13 79 -12 24z"/>
<path d="M3274 2164 c-18 -14 -18 -15 4 -4 12 6 22 13 22 15 0 8 -5 6 -26 -11z"/>
<path d="M4479 2100 l-4 -45 -174 -24 c-205 -29 -212 -40 -10 -16 78 9 143 15
145 12 8 -7 8 -60 1 -107 -4 -29 0 -22 10 20 8 36 22 81 30 101 8 20 13 51 11
70 -4 32 -4 31 -9 -11z"/>
<path d="M1705 2010 c28 -30 63 -71 78 -90 24 -30 24 -29 -3 11 -17 25 -52 66
-78 90 l-46 44 49 -55z"/>
<path d="M4073 1993 c9 -2 25 -2 35 0 9 3 1 5 -18 5 -19 0 -27 -2 -17 -5z"/>
<path d="M4008 1983 c6 -2 18 -2 25 0 6 3 1 5 -13 5 -14 0 -19 -2 -12 -5z"/>
<path d="M1583 1953 c15 -2 37 -2 50 0 12 2 0 4 -28 4 -27 0 -38 -2 -22 -4z"/>
<path d="M1821 1860 c14 -31 19 -36 19 -24 0 6 -7 19 -16 30 -14 18 -14 18 -3
-6z"/>
<path d="M4421 1854 c0 -11 3 -14 6 -6 3 7 2 16 -1 19 -3 4 -6 -2 -5 -13z"/>
<path d="M2843 1730 c-34 -20 -47 -38 -15 -21 23 13 58 40 52 41 -3 0 -20 -9
-37 -20z"/>
<path d="M1342 1650 c0 -14 2 -19 5 -12 2 6 2 18 0 25 -3 6 -5 1 -5 -13z"/>
<path d="M1590 1626 c0 -2 14 -14 30 -26 17 -12 30 -19 30 -16 0 2 -13 14 -30
26 -16 12 -30 19 -30 16z"/>
<path d="M1666 1570 c5 -5 25 -12 44 -15 36 -5 29 -1 -25 16 -20 6 -26 6 -19
-1z"/>
<path d="M1758 1543 c6 -2 18 -2 25 0 6 3 1 5 -13 5 -14 0 -19 -2 -12 -5z"/>
<path d="M2593 1335 c0 -27 2 -38 4 -22 2 15 2 37 0 50 -2 12 -4 0 -4 -28z"/>
<path d="M1575 951 c8 -16 38 -53 66 -83 l51 -53 -47 54 c-25 30 -53 67 -61
83 -8 15 -17 28 -20 28 -2 0 2 -13 11 -29z"/>
</g>
</svg>