<?xml version="1.0" standalone="no"?>
<!DOCTYPE svg PUBLIC "-//W3C//DTD SVG 20010904//EN"
 "http://www.w3.org/TR/2001/REC-SVG-20010904/DTD/svg10.dtd">
<svg version="1.0" xmlns="http://www.w3.org/2000/svg"
 width="512.000000pt" height="512.000000pt" viewBox="0 0 512.000000 512.000000"
 preserveAspectRatio="xMidYMid meet">
<metadata>
Created by potrace 1.16, written by Peter Selinger 2001-2019
</metadata>
<g transform="translate(0.000000,512.000000) scale(0.100000,-0.100000)"
fill="#000000" stroke="none">
<path d="M2775 4666 c-117 -29 -228 -105 -315 -214 -51 -64 -77 -123 -85 -192
-3 -30 -13 -89 -21 -130 -8 -41 -13 -93 -10 -115 6 -39 5 -41 -39 -69 -26 -16
-90 -71 -143 -123 -105 -102 -139 -121 -237 -132 -64 -7 -83 -14 -103 -43 -7
-10 -23 -18 -35 -18 -32 -1 -98 -33 -124 -61 -12 -14 -38 -60 -58 -102 -20
-43 -55 -105 -78 -137 -44 -61 -63 -73 -195 -121 -35 -12 -70 -32 -77 -43 -7
-12 -17 -56 -20 -99 -7 -78 -8 -79 -62 -138 -38 -40 -76 -69 -120 -90 -82 -39
-86 -47 -153 -324 -79 -328 -141 -507 -192 -562 -18 -19 -21 -33 -19 -95 1
-40 7 -80 12 -90 5 -10 14 -43 20 -75 6 -31 24 -82 41 -112 26 -49 29 -63 24
-108 -6 -48 -4 -54 33 -101 63 -80 147 -139 167 -119 22 21 -38 116 -91 145
-19 10 -19 12 -2 46 9 20 21 36 26 36 9 0 31 -24 98 -108 23 -28 63 -55 142
-95 125 -64 123 -64 260 -1 l75 34 23 -27 c13 -16 47 -66 76 -112 29 -47 65
-92 82 -102 23 -14 38 -38 63 -104 38 -97 111 -186 174 -215 37 -16 31 -17
-245 -24 -279 -6 -516 -19 -652 -33 l-70 -7 100 -7 c55 -4 242 -12 415 -19
173 -6 373 -15 444 -20 72 -6 217 -10 323 -10 106 0 212 -4 235 -9 24 -6 147
-26 273 -46 203 -31 251 -36 405 -35 96 1 184 5 195 10 18 7 17 9 -15 24 l-35
15 40 1 c22 1 49 5 59 9 18 7 18 8 -5 14 -13 4 -36 7 -50 7 -22 0 -26 5 -26
29 0 42 -26 77 -86 115 -54 35 -93 73 -121 118 l-17 26 43 -15 c58 -21 162
-20 228 2 37 12 68 33 104 69 47 47 51 55 53 101 1 40 -14 283 -20 319 -1 4
30 17 68 28 98 27 243 99 289 144 46 45 95 146 103 214 4 38 1 56 -17 88 l-22
40 25 63 c14 35 28 84 32 109 4 25 17 58 28 74 30 43 35 177 9 229 -17 31 -18
44 -10 80 10 43 3 123 -11 131 -4 3 -6 -21 -5 -52 l3 -57 -13 55 c-24 101 -99
220 -153 241 -5 2 -39 62 -76 133 l-67 128 0 92 c0 118 -21 210 -67 304 -41
84 -122 174 -176 197 -19 8 -44 29 -55 49 l-20 34 35 33 c20 19 48 61 64 94
37 77 41 188 9 241 -16 25 -21 51 -22 110 -1 84 -18 167 -41 193 -8 9 -24 34
-35 57 -45 88 -215 204 -342 233 -60 14 -183 12 -245 -3z m268 -27 c52 -14
131 -48 125 -55 -3 -2 -18 0 -33 6 -55 21 -169 31 -235 21 -91 -14 -206 -47
-189 -54 11 -4 11 -6 -2 -6 -9 -1 -35 -15 -58 -31 -30 -22 -48 -29 -66 -24
-39 10 -38 20 4 53 54 43 162 92 224 101 59 10 174 4 230 -11z m62 -53 c97
-26 190 -88 221 -148 l15 -28 -48 36 c-178 137 -427 144 -613 19 -28 -19 -50
-32 -50 -29 0 2 -16 -13 -35 -34 -19 -20 -35 -32 -35 -26 0 5 14 23 30 39 17
16 30 34 30 41 0 29 130 104 223 129 67 18 198 19 262 1z m0 -116 c21 -17 19
-25 -10 -38 -69 -31 -183 -22 -219 17 -17 19 -17 20 16 25 18 3 44 8 58 10 42
7 140 -2 155 -14z m-518 -8 c3 -7 -7 -26 -22 -42 -24 -25 -30 -27 -59 -18 -42
15 -41 12 -15 47 19 26 29 31 57 29 19 -1 37 -8 39 -16z m283 -67 c0 -45 -70
-105 -121 -105 -12 0 -32 8 -43 18 -21 17 -21 17 -2 -5 36 -43 116 -22 159 43
l24 35 32 -49 c38 -60 38 -71 4 -104 -52 -48 -104 -62 -133 -35 -30 27 14 -28
68 -84 l54 -57 33 20 c42 24 68 63 60 89 -6 18 -5 19 13 8 20 -12 19 -14 -16
-56 -19 -24 -46 -50 -59 -56 l-23 -13 33 -32 33 -32 34 18 c19 10 34 22 34 27
-1 6 -4 26 -7 45 l-6 35 11 -37 c6 -21 19 -40 29 -43 26 -9 88 21 99 47 9 23
9 23 9 -3 1 -18 13 -38 36 -58 20 -17 38 -31 41 -31 2 0 9 10 14 23 8 20 9 20
9 2 1 -41 -12 -45 -56 -15 -23 16 -44 26 -47 23 -3 -4 -6 1 -6 10 0 14 -3 15
-35 1 -19 -7 -45 -14 -58 -14 -19 0 -24 -5 -22 -22 1 -13 0 -15 -2 -5 -5 20
-3 20 -42 4 l-31 -13 36 -47 c36 -46 37 -46 65 -32 15 8 35 15 43 15 8 0 19
12 25 28 l11 27 -5 -27 c-4 -21 1 -30 25 -45 l31 -19 -23 -20 c-19 -16 -20
-16 -9 -1 27 34 -35 58 -91 36 -27 -11 -27 -12 -12 -40 8 -16 12 -29 10 -29
-3 0 -13 15 -22 33 -9 17 -77 92 -151 165 l-134 133 -21 -47 c-11 -26 -24 -79
-29 -118 l-8 -71 4 76 c2 58 10 89 30 128 19 38 23 56 16 65 -6 7 -8 16 -5 19
4 3 -5 20 -19 36 -22 26 -26 28 -30 13 -4 -14 -5 -13 -6 4 0 11 -10 29 -21 39
-17 16 -18 20 -5 44 17 33 71 84 110 104 28 15 31 15 48 -5 9 -11 17 -30 17
-43z m369 -10 c11 -16 22 -46 26 -65 10 -48 17 -57 27 -34 8 18 8 18 5 -1 -7
-51 -94 17 -133 104 -13 29 -24 58 -24 63 0 18 81 -36 99 -67z m-242 15 c26 1
66 7 88 15 22 8 41 15 42 15 7 0 33 -62 33 -80 0 -35 -55 -60 -132 -60 l-67 0
-37 63 c-20 34 -39 65 -41 69 -2 4 12 1 31 -7 20 -8 57 -15 83 -15z m-497 -39
c0 -4 -3 -11 -7 -17 -5 -5 0 -1 10 10 15 16 20 17 27 6 8 -14 2 -38 -25 -90
-8 -16 -15 -40 -15 -54 0 -17 -5 -24 -17 -22 -13 2 -19 14 -21 39 -3 29 -7 37
-23 37 -30 0 -33 23 -9 73 21 44 23 45 51 35 16 -5 29 -13 29 -17z m900 -53
c6 -24 13 -49 15 -55 5 -15 -31 -18 -40 -3 -3 5 -12 30 -19 55 -14 45 -14 45
10 45 19 0 25 -8 34 -42z m-210 -75 c7 -54 10 -107 7 -118 -3 -12 -5 -4 -6 18
-1 27 -5 36 -13 31 -10 -6 -10 -4 0 7 22 24 12 29 -20 9 -32 -20 -91 -26 -123
-14 -14 6 -65 91 -65 109 0 4 17 5 38 4 72 -5 101 1 129 26 15 13 31 25 34 25
4 0 12 -44 19 -97z m58 33 c25 -22 32 -96 9 -96 -20 0 -44 30 -51 63 -3 15 -9
39 -12 54 -5 24 -4 25 13 13 10 -8 28 -23 41 -34z m-808 -59 c0 -34 6 -46 39
-76 44 -41 61 -88 61 -172 0 -66 -15 -115 -38 -124 -13 -5 -13 -3 2 14 60 66
0 291 -77 291 -19 0 -18 -2 9 -19 42 -25 68 -101 62 -177 -3 -30 -10 -60 -17
-67 -10 -9 -10 -6 -2 16 30 78 -16 217 -70 217 -10 0 -23 -8 -28 -17 -13 -23
-14 -5 -1 49 5 24 12 59 15 79 5 31 9 36 25 32 16 -4 20 -14 20 -46z m551 -13
c3 3 3 -10 1 -29 -5 -42 -43 -85 -74 -85 -16 0 -37 15 -61 45 -36 43 -37 45
-15 45 31 0 83 33 105 66 l18 28 10 -38 c6 -20 13 -35 16 -32z m316 24 c-3 -8
-6 -5 -6 6 -1 11 2 17 5 13 3 -3 4 -12 1 -19z m-605 -21 c-16 -24 -18 -37 -10
-50 5 -10 8 -20 6 -23 -3 -2 -12 12 -21 32 -10 19 -13 33 -8 29 6 -3 18 6 27
20 24 37 29 31 6 -8z m-113 -18 c46 -43 69 -140 55 -237 l-8 -57 -7 71 c-10
85 -40 172 -74 208 -14 15 -25 29 -25 32 0 12 39 1 59 -17z m-40 -23 c28 -30
59 -112 67 -178 8 -67 -10 -138 -34 -138 -15 0 -17 11 -17 83 0 97 -23 172
-67 223 l-30 34 29 0 c18 0 38 -9 52 -24z m748 -22 c9 4 13 -4 12 -27 -1 -19
-3 -24 -6 -12 -2 12 -21 29 -45 40 -23 11 -43 26 -46 33 -2 7 13 1 34 -13 21
-14 44 -23 51 -21z m-209 9 c-36 -3 -48 -8 -48 -20 0 -9 -3 -14 -6 -10 -4 3
-4 13 -1 22 5 11 19 15 54 13 l48 -2 -47 -3z m261 -65 c-2 -28 -2 -29 -6 -8
-3 14 -10 28 -17 32 -7 5 -5 8 7 8 13 0 17 -8 16 -32z m85 -81 c0 -87 -26
-173 -64 -219 -15 -18 -14 -10 8 42 24 57 27 78 27 177 0 100 2 111 15 97 11
-11 15 -37 14 -97z m-1004 52 c0 -6 -4 -7 -10 -4 -5 3 -10 11 -10 16 0 6 5 7
10 4 6 -3 10 -11 10 -16z m867 -11 c-3 -8 -6 -5 -6 6 -1 11 2 17 5 13 3 -3 4
-12 1 -19z m43 -6 c0 -5 -7 -17 -15 -28 -14 -18 -14 -17 -4 9 12 27 19 34 19
19z m117 -62 c-5 -58 -36 -160 -50 -160 -2 0 7 30 19 68 13 37 24 88 24 115 0
26 3 47 6 47 4 0 4 -31 1 -70z m-1009 11 c2 -17 0 -31 -4 -31 -17 0 -44 35
-44 56 0 20 3 22 23 15 15 -6 23 -18 25 -40z m-71 7 c-3 -8 -6 -5 -6 6 -1 11
2 17 5 13 3 -3 4 -12 1 -19z m587 -95 c47 -47 73 -89 62 -100 -4 -4 -37 -9
-74 -11 -57 -3 -71 -1 -95 18 -47 37 -63 84 -58 178 l1 32 61 -37 c33 -21 80
-57 103 -80z m-577 45 c-3 -8 -6 -5 -6 6 -1 11 2 17 5 13 3 -3 4 -12 1 -19z
m-27 -7 c0 -11 -10 -36 -21 -56 -20 -33 -21 -40 -9 -78 7 -23 19 -53 27 -67 8
-14 12 -17 9 -7 -15 49 -17 123 -4 141 14 17 16 16 33 -19 14 -31 16 -53 11
-119 -3 -48 -2 -87 4 -96 7 -12 10 -8 10 16 0 43 11 94 20 94 10 0 34 -57 78
-190 62 -183 123 -312 140 -296 2 3 -1 14 -9 23 -7 10 10 -5 39 -34 58 -58 92
-70 170 -59 l47 6 -24 -20 c-13 -11 -19 -20 -14 -20 34 0 87 31 143 84 36 33
49 44 30 24 -42 -47 -30 -48 32 -3 62 45 93 88 132 182 18 43 40 92 50 108
l17 30 -5 -52 c-6 -66 -38 -138 -78 -180 -45 -47 -16 -41 35 6 66 61 91 119
95 223 2 49 -1 102 -7 120 -11 30 -10 31 7 14 22 -19 42 -79 42 -124 0 -16 -9
-61 -21 -98 -19 -60 -30 -77 -93 -139 -99 -98 -221 -168 -341 -196 l-93 -21
-54 28 c-66 35 -203 171 -371 369 -125 147 -207 221 -234 211 -31 -12 -9 33
40 80 73 70 148 134 158 134 5 0 9 -9 9 -19z m886 -19 l-29 -27 23 32 c13 18
26 30 29 28 3 -3 -8 -18 -23 -33z m-169 6 c-3 -8 -6 -5 -6 6 -1 11 2 17 5 13
3 -3 4 -12 1 -19z m-629 -49 c12 0 13 -2 4 -6 -14 -5 -62 33 -62 50 0 5 9 -2
21 -17 11 -14 28 -26 37 -27z m912 47 c0 -16 -45 -105 -62 -123 -21 -23 -62
-30 -85 -15 -17 11 -6 25 68 87 58 49 79 63 79 51z m-613 -48 c-3 -7 -5 -2 -5
12 0 14 2 19 5 13 2 -7 2 -19 0 -25z m0 -80 c-3 -8 -6 -5 -6 6 -1 11 2 17 5
13 3 -3 4 -12 1 -19z m380 -15 c2 -6 -6 -13 -19 -16 -21 -6 -22 -5 -5 7 11 9
14 16 7 19 -6 3 -6 5 2 3 6 -1 13 -7 15 -13z m-328 -66 l23 -42 -32 38 c-17
20 -38 37 -46 37 -8 0 -13 4 -10 9 12 18 42 -1 65 -42z m448 27 c-3 -3 -12 -4
-19 -1 -8 3 -5 6 6 6 11 1 17 -2 13 -5z m-289 -11 c-16 -2 -40 -2 -55 0 -16 2
-3 4 27 4 30 0 43 -2 28 -4z m209 -15 c-3 -8 -6 -5 -6 6 -1 11 2 17 5 13 3 -3
4 -12 1 -19z m-96 -15 c-12 -20 -14 -14 -5 12 4 9 9 14 11 11 3 -2 0 -13 -6
-23z m-921 -3 c38 -20 90 -240 90 -378 0 -81 -4 -84 -81 -75 l-64 8 -6 90 c-8
110 -21 161 -54 209 -14 20 -25 39 -25 41 0 2 25 12 55 21 53 17 55 17 77 -2
l22 -19 -22 32 c-13 18 -37 44 -55 57 l-32 26 38 0 c21 0 47 -5 57 -10z m-100
-15 c12 -14 5 -20 -21 -17 -4 1 -13 -12 -21 -28 l-14 -29 -43 30 c-39 25 -41
29 -20 30 13 0 40 6 59 13 47 18 46 18 60 1z m981 -20 c28 -19 44 -35 36 -35
-17 0 -69 -102 -56 -110 4 -3 -3 -10 -17 -17 -13 -6 -21 -7 -18 -1 9 15 -36
59 -85 80 l-43 20 -32 -23 -31 -22 24 26 c18 20 22 33 18 59 l-6 33 15 -32 c9
-22 27 -38 59 -52 24 -11 56 -31 70 -45 l26 -26 24 52 c14 29 25 59 25 66 0
11 -56 52 -71 52 -4 0 -31 -16 -59 -35 -29 -20 -55 -34 -57 -32 -6 7 102 76
120 77 4 0 30 -16 58 -35z m159 0 c0 -5 -5 -3 -10 5 -5 8 -10 20 -10 25 0 6 5
3 10 -5 5 -8 10 -19 10 -25z m-1092 -8 c9 -11 1 -17 -38 -29 -47 -15 -48 -15
-37 2 10 17 41 37 58 39 4 1 11 -5 17 -12z m1132 9 c0 -2 -8 -10 -17 -17 -16
-13 -17 -12 -4 4 13 16 21 21 21 13z m-1269 -73 c73 -76 84 -110 84 -273 0
-80 -3 -172 -7 -205 -5 -38 -4 -53 1 -40 9 18 10 17 10 -7 1 -31 -14 -45 -23
-22 -3 9 -6 88 -6 177 0 212 -9 265 -56 328 -20 27 -52 60 -70 73 -19 12 -31
26 -28 29 10 10 56 -19 95 -60z m310 1 c29 -43 29 -43 18 -119 -8 -50 -15 -72
-20 -63 -5 7 -9 22 -9 34 0 18 -20 102 -46 194 -7 23 -6 24 10 11 10 -8 31
-34 47 -57z m889 56 c0 -5 -17 -9 -37 -9 l-38 2 35 7 c19 4 36 8 38 9 1 0 2
-3 2 -9z m-400 -93 c0 -5 6 -5 13 -1 6 4 9 4 5 0 -4 -5 21 -33 55 -63 64 -57
97 -79 97 -66 0 4 10 19 21 33 22 27 11 0 -13 -33 -13 -17 -16 -17 -53 11 -54
40 -162 147 -176 175 -7 13 1 8 19 -13 17 -19 31 -39 32 -43z m398 24 c-13
-15 -25 -27 -27 -25 -2 2 1 10 7 17 7 8 8 18 4 22 -4 5 -2 5 5 1 6 -3 14 -2
18 4 3 5 9 10 11 10 3 0 -5 -13 -18 -29z m295 -1 c53 -38 120 -137 145 -215
11 -33 22 -94 25 -135 6 -80 4 -77 -29 48 -10 34 -19 50 -26 46 -7 -5 -9 -2
-6 8 4 8 2 21 -3 29 -8 12 -10 12 -8 -1 1 -8 1 -33 0 -55 l-2 -40 -13 30 c-7
17 -25 44 -39 61 -16 19 -27 44 -27 61 0 43 -27 126 -50 156 -37 46 -25 49 33
7z m-1538 -11 c54 -48 67 -82 72 -184 l3 -90 -16 35 c-10 19 -33 67 -51 106
-19 40 -45 82 -58 94 -22 20 -27 21 -77 10 -29 -6 -64 -18 -78 -26 -17 -11
-19 -13 -5 -9 11 4 45 13 75 21 l55 15 27 -33 c29 -33 83 -159 77 -176 -2 -5
-33 -30 -69 -54 -45 -30 -81 -67 -118 -117 -48 -68 -61 -98 -30 -74 7 6 47 18
88 27 41 9 98 27 125 40 l50 23 -3 -39 c-4 -36 -6 -38 -41 -39 -20 0 -54 -3
-76 -7 l-40 -7 45 -14 c31 -10 39 -16 26 -19 -10 -2 -52 -30 -93 -63 -81 -64
-191 -129 -223 -132 -11 -1 -20 -4 -20 -7 0 -3 -13 -13 -28 -22 -23 -14 -29
-14 -29 -4 0 8 6 12 14 9 7 -3 13 -1 13 4 0 5 49 42 108 81 59 39 117 81 127
94 14 15 5 12 -30 -13 -114 -80 -187 -121 -197 -111 -6 6 -34 57 -64 114 -29
56 -53 97 -54 90 0 -7 -28 -41 -62 -76 -35 -35 -85 -89 -111 -119 -26 -31 -73
-70 -102 -87 -72 -41 -82 -59 -14 -24 78 39 125 79 169 144 21 31 50 64 63 73
23 15 26 15 31 0 8 -19 -15 -46 -61 -74 -30 -19 -32 -23 -20 -38 20 -24 48
-71 42 -71 -2 0 -17 19 -32 41 l-28 42 -58 -64 c-50 -55 -56 -64 -40 -70 17
-7 17 -8 0 -8 -10 -1 -22 -11 -27 -23 -8 -22 -9 -21 -10 7 l-2 30 -8 -28 c-8
-28 -43 -79 -76 -111 -13 -13 -14 -20 -4 -31 19 -23 25 -19 50 35 13 27 25 48
27 46 3 -2 -7 -27 -21 -55 -15 -28 -25 -54 -24 -58 2 -10 -75 -161 -96 -188
-9 -11 8 26 37 83 l52 103 -24 20 -25 20 -22 -38 c-38 -66 -88 -143 -91 -140
-4 5 44 227 58 267 24 66 50 99 106 130 110 62 182 148 183 217 1 42 26 105
47 117 16 9 165 76 170 76 1 0 3 -10 5 -22 3 -16 9 -6 21 36 10 32 20 56 23
53 2 -2 0 -37 -7 -76 -11 -72 -5 -114 7 -52 l7 32 26 -25 c15 -14 30 -26 33
-26 3 0 8 46 11 103 13 208 63 308 164 327 72 14 91 11 128 -21z m1520 -83
c20 -67 19 -125 -5 -242 -21 -99 -37 -142 -27 -69 3 22 1 63 -5 90 -5 28 -10
78 -11 112 -2 43 -7 68 -18 79 -16 15 -15 20 5 65 19 43 22 46 34 31 7 -9 19
-39 27 -66z m-754 41 c-10 -9 -11 -8 -5 6 3 10 9 15 12 12 3 -3 0 -11 -7 -18z
m397 -4 c-10 -2 -26 -2 -35 0 -10 3 -2 5 17 5 19 0 27 -2 18 -5z m-698 -127
c0 -4 -9 -6 -20 -3 -23 6 -24 3 -10 -24 6 -10 18 -19 27 -19 13 0 14 -9 9 -57
-4 -32 -14 -81 -22 -109 l-14 -52 -41 10 c-31 8 -39 14 -33 27 50 122 73 254
26 146 -41 -92 -42 -94 -35 -41 3 27 16 76 29 107 13 32 24 76 24 96 l1 38 29
-55 c16 -30 29 -59 30 -64z m248 100 c-10 -7 -14 -17 -10 -22 4 -5 3 -6 -2 -2
-5 4 -18 2 -30 -4 l-21 -10 20 19 c19 18 41 31 55 32 3 0 -3 -6 -12 -13z m103
-43 c8 -9 9 -14 2 -10 -6 4 -21 -4 -33 -20 l-22 -28 34 -29 c31 -26 27 -25
-33 10 -17 10 -16 13 11 46 16 19 26 38 23 42 -3 3 -4 6 -1 6 3 0 12 -8 19
-17z m55 -65 l29 -33 -32 29 c-31 28 -38 36 -30 36 2 0 16 -15 33 -32z m252 5
c-10 -2 -28 -2 -40 0 -13 2 -5 4 17 4 22 1 32 -1 23 -4z m-378 -27 c0 -2 -8
-10 -17 -17 -16 -13 -17 -12 -4 4 13 16 21 21 21 13z m858 -74 c11 -26 28 -88
37 -137 10 -50 26 -107 36 -127 26 -52 24 -56 -13 -22 -32 29 -32 29 5 -21 69
-93 137 -197 137 -209 0 -6 -13 -17 -30 -23 -26 -10 -37 -7 -91 22 -60 32 -61
32 -32 40 19 6 23 9 11 12 -9 2 -40 -7 -70 -22 -29 -14 -45 -20 -35 -13 10 7
33 24 50 37 l32 23 -89 -4 c-95 -5 -96 -3 -30 39 17 11 17 12 -9 12 -27 1 -27
1 -12 30 8 17 25 37 37 45 22 16 22 16 -10 16 -17 0 -32 2 -32 4 0 1 5 17 11
35 11 31 12 32 57 25 41 -6 45 -5 39 12 -49 151 -57 192 -51 242 8 62 20 58
52 -16z m-1064 -70 c5 -8 -14 -29 -57 -61 -16 -13 -16 -11 -3 20 7 19 19 59
27 89 l13 55 7 -47 c4 -26 10 -51 13 -56z m-494 78 c0 -6 -26 -27 -57 -47 -32
-20 -76 -50 -98 -66 l-40 -31 40 43 c38 41 131 111 147 111 5 0 8 -5 8 -10z
m870 7 c0 -2 -10 -12 -22 -23 l-23 -19 19 23 c18 21 26 27 26 19z m489 -104
c1 -39 -3 -53 -13 -53 -7 0 -28 -3 -45 -6 -31 -6 -31 -6 -31 36 0 37 5 47 38
75 44 39 50 32 51 -52z m-837 29 c-6 -2 -8 -11 -5 -20 4 -13 3 -14 -5 -3 -6 8
-6 24 2 43 10 29 11 29 14 7 2 -13 -1 -25 -6 -27z m-259 -13 c22 -12 21 -24
-3 -78 -29 -62 -100 -158 -157 -211 l-48 -45 39 42 c36 39 42 71 9 59 -8 -3
-11 -1 -8 4 3 6 -1 7 -9 4 -16 -6 -22 7 -10 19 7 7 46 -11 55 -25 3 -5 20 8
38 29 l31 38 -47 15 c-69 22 -67 40 3 23 47 -12 58 -13 65 -1 6 10 -1 15 -29
20 -87 18 -83 14 -76 61 10 72 8 70 72 62 31 -4 65 -11 75 -16z m904 -128 c-4
-70 -9 -143 -12 -162 -4 -29 -3 -30 4 -9 5 14 9 43 10 66 1 32 8 47 36 74 l34
33 -5 -74 c-7 -85 -19 -133 -40 -154 -9 -8 -26 -45 -39 -82 l-24 -68 5 50 c5
61 13 250 13 368 1 59 5 87 13 87 8 0 9 -34 5 -129z m-511 32 c-13 -37 -38
-98 -55 -135 -17 -37 -31 -69 -31 -72 0 -12 87 -36 128 -36 l47 1 -55 22 c-33
13 -56 29 -58 40 -2 10 12 58 32 106 20 49 36 98 36 110 0 12 5 21 10 21 14 0
4 -55 -27 -144 -12 -38 -23 -75 -23 -81 0 -6 16 -19 36 -29 36 -16 36 -16 31
3 -4 17 25 81 37 81 3 0 0 -15 -5 -32 -5 -18 -9 -41 -9 -52 0 -18 1 -18 18 -3
23 21 66 22 86 2 17 -17 20 -11 29 55 3 25 3 25 12 -4 5 -18 4 -36 -4 -47 -16
-27 -15 -28 37 -11 26 8 53 17 60 18 15 4 17 97 2 125 -8 13 -7 19 0 19 6 0
13 -7 16 -15 11 -27 21 -16 34 40 7 31 18 59 23 62 6 4 8 -3 4 -18 -9 -33 -25
-122 -35 -196 -6 -43 -5 -64 2 -67 26 -11 -24 -26 -89 -27 l-70 0 45 -13 c50
-15 140 -54 140 -62 0 -13 -85 -153 -119 -195 -40 -50 -151 -147 -151 -132 0
5 23 26 51 47 57 44 91 89 142 192 l36 72 -41 27 c-47 31 -95 48 -103 35 -3
-5 7 -16 22 -24 16 -7 36 -23 47 -34 18 -20 17 -22 -8 -78 -28 -60 -85 -143
-99 -144 -5 0 1 13 13 30 25 35 70 135 70 156 0 18 -47 64 -66 64 -9 0 -14
-12 -14 -34 0 -38 -22 -70 -79 -115 l-39 -31 -13 69 c-11 62 -10 73 5 95 15
24 15 26 0 26 -24 0 -124 -59 -124 -73 0 -7 -14 -45 -32 -85 -29 -67 -31 -76
-21 -115 16 -57 9 -58 -12 -3 -18 46 -18 47 11 142 32 105 34 108 139 145 59
21 76 45 24 34 -71 -14 -218 -71 -223 -85 -2 -8 -22 -62 -44 -120 -60 -158
-59 -148 -2 -214 27 -31 53 -64 58 -73 9 -15 17 -14 82 16 40 17 74 30 77 28
2 -3 -26 -17 -63 -33 -39 -16 -69 -36 -73 -47 -7 -18 -10 -17 -31 13 -13 19
-48 61 -77 93 -32 36 -52 67 -49 76 3 9 25 82 51 164 39 127 49 147 66 147 30
0 159 40 159 50 0 4 -23 10 -51 14 -61 8 -62 -3 29 190 69 144 91 167 48 49z
m741 20 c-2 -16 -4 -5 -4 22 0 28 2 40 4 28 2 -13 2 -35 0 -50z m-929 -101
c-27 -89 -46 -137 -51 -129 -5 7 -6 1 -3 -15 3 -14 3 -28 -2 -30 -4 -2 -20
-36 -36 -75 -15 -40 -31 -75 -35 -77 -4 -3 -3 32 2 77 4 45 6 105 3 132 -5 44
-1 59 32 122 32 63 85 123 97 111 2 -2 -6 -35 -19 -74 -13 -38 -26 -89 -30
-114 -5 -43 -5 -44 5 -10 46 154 71 231 75 227 3 -2 -14 -68 -38 -145z m-93
68 c0 -8 -6 -15 -12 -14 -7 1 -22 2 -33 3 -12 0 -20 8 -20 20 0 16 5 17 33 12
18 -4 32 -13 32 -21z m985 6 c0 -19 -7 -25 -35 -30 -20 -4 -40 -4 -45 -1 -6 3
-10 -5 -10 -19 0 -29 0 -29 52 -17 29 7 35 6 31 -5 -3 -8 -23 -17 -44 -20 -21
-4 -39 -11 -39 -17 0 -5 13 -7 33 -3 23 4 28 3 17 -4 -8 -5 -25 -10 -37 -10
-20 0 -23 5 -23 39 0 21 3 52 6 69 5 27 11 31 43 35 20 2 39 4 44 5 4 1 7 -9
7 -22z m-1076 -30 c-5 -20 -1 -24 26 -30 28 -5 31 -9 26 -31 -15 -59 -24 -74
-45 -68 -18 5 -21 13 -21 63 0 54 6 90 16 90 3 0 2 -11 -2 -24z m62 -11 c17
-13 16 -14 -13 -4 -34 11 -42 19 -20 19 7 0 22 -7 33 -15z m-97 -164 c-5 -79
-11 -147 -15 -150 -6 -6 -74 65 -102 107 -14 22 -13 25 15 55 16 18 47 56 67
85 21 29 40 52 41 50 2 -2 -1 -68 -6 -147z m-149 42 c0 -9 -20 -1 -34 13 -26
25 -18 36 9 12 14 -12 25 -23 25 -25z m1650 -77 c28 -49 47 -93 43 -97 -12
-12 -129 172 -125 195 6 27 20 9 82 -98z m-470 64 c0 -21 -118 -261 -119 -242
-1 7 19 63 44 123 25 61 45 119 45 129 0 13 5 18 15 14 8 -4 15 -14 15 -24z
m-1216 2 c3 -5 -1 -9 -9 -9 -8 0 -15 4 -15 9 0 4 4 8 9 8 6 0 12 -4 15 -8z
m266 -17 c0 -16 -55 -22 -64 -6 -8 13 5 21 36 21 18 0 28 -5 28 -15z m-285
-45 c-3 -5 -12 -10 -18 -10 -7 0 -6 4 3 10 19 12 23 12 15 0z m238 -22 c-8
-46 -13 -48 -13 -5 0 21 4 37 10 37 5 0 7 -14 3 -32z m36 -50 c0 -50 -3 -67
-9 -53 -12 28 -12 125 0 125 6 0 10 -30 9 -72z m-117 -85 c35 -36 35 -62 1
-38 -26 18 -103 132 -103 152 0 8 16 -7 36 -34 20 -26 50 -62 66 -80z m-752
59 c12 11 12 11 2 -3 -6 -9 -9 -18 -6 -21 3 -3 1 -9 -4 -12 -5 -3 -16 12 -26
32 -16 36 -16 36 1 14 15 -19 21 -20 33 -10z m1670 -29 c-7 -21 -16 -42 -20
-48 -14 -20 -39 -111 -57 -213 l-18 -103 -62 -55 c-35 -30 -63 -52 -63 -49 0
4 11 16 25 27 40 32 73 97 100 203 25 97 56 184 82 235 7 14 13 31 13 39 0 8
3 12 6 8 3 -3 0 -23 -6 -44z m-853 -10 c-3 -10 -5 -4 -5 12 0 17 2 24 5 18 2
-7 2 -21 0 -30z m-453 -69 c15 -47 26 -88 24 -90 -2 -2 -23 10 -47 25 -24 16
-61 37 -82 47 -22 9 -39 20 -39 23 0 5 109 80 116 81 1 0 14 -39 28 -86z
m2066 50 c30 -25 76 -101 67 -110 -2 -3 -12 7 -21 21 -22 33 -114 85 -152 85
-17 0 -51 -10 -76 -23 -33 -17 -44 -19 -40 -9 8 23 103 62 149 62 30 0 50 -7
73 -26z m-588 -34 c18 -24 52 -58 74 -75 l40 -30 -56 -18 c-30 -10 -98 -45
-152 -77 l-96 -58 65 137 c36 75 68 144 70 154 7 24 15 20 55 -33z m-1224 -70
l43 -45 -32 58 c-17 32 -30 60 -27 62 2 2 34 -29 71 -70 75 -82 81 -106 43
-153 -33 -39 -108 -77 -132 -68 -15 6 -11 11 26 27 51 23 100 66 100 88 0 11
-6 9 -24 -8 l-24 -22 -30 37 c-17 20 -44 71 -61 113 -17 42 -23 65 -13 51 9
-14 36 -45 60 -70z m1059 53 c-9 -9 -20 -13 -24 -9 -4 4 -1 11 7 16 25 16 35
11 17 -7z m745 -16 c50 -38 84 -95 94 -155 5 -35 4 -42 -10 -42 -12 0 -16 -10
-16 -45 0 -28 5 -45 12 -45 6 0 9 -2 6 -5 -3 -3 -16 -1 -29 4 -13 5 -18 10
-10 10 11 1 12 13 6 64 -4 34 -9 83 -10 110 -3 48 -14 71 -47 88 -17 9 -17 8
2 -23 29 -48 24 -57 -6 -12 -15 21 -32 42 -38 46 -6 4 -7 8 -2 8 5 0 3 7 -4
15 -22 26 6 17 52 -18z m-2542 20 c0 -2 -10 -12 -22 -23 l-23 -19 19 23 c18
21 26 27 26 19z m265 -22 c83 -31 181 -86 248 -138 29 -22 131 -117 228 -211
97 -94 203 -191 235 -216 32 -25 88 -74 124 -109 69 -68 59 -65 -28 7 -29 25
-55 43 -57 41 -2 -2 30 -49 72 -104 41 -55 84 -113 95 -130 l20 -30 -22 25
c-12 14 -80 94 -152 178 -72 84 -132 151 -134 149 -2 -2 17 -41 41 -87 41 -78
111 -267 102 -276 -2 -2 -34 63 -72 146 -79 177 -136 261 -236 354 -85 79
-131 108 -70 45 56 -58 108 -152 148 -267 34 -97 44 -143 17 -82 -15 35 -81
110 -97 110 -4 0 -5 -6 0 -12 19 -33 -89 72 -114 109 -16 25 -34 41 -41 38 -8
-3 -26 3 -40 14 -15 10 -47 29 -72 41 -25 12 -62 36 -83 53 -21 16 -40 27 -42
25 -9 -8 40 -46 130 -101 79 -48 103 -70 198 -183 78 -93 127 -163 178 -255
39 -70 89 -149 112 -176 l42 -48 -49 43 c-37 31 -52 39 -58 30 -6 -10 -8 -9
-8 3 0 8 -12 26 -26 40 -14 13 -46 56 -71 94 -48 74 -155 209 -176 222 -6 4 9
-22 35 -57 100 -137 131 -184 112 -170 -10 9 -44 37 -74 62 l-56 46 4 -37 c3
-20 1 -33 -3 -29 -4 4 -9 22 -11 39 -5 39 -6 40 -109 162 l-80 95 -127 42
c-89 29 -138 52 -165 75 -38 32 -113 75 -133 75 -5 0 -10 -12 -10 -27 0 -15
-4 -23 -8 -17 -16 17 -52 190 -52 247 0 52 3 61 37 98 20 22 53 49 72 59 53
28 144 26 226 -5z m1995 21 c0 -2 -8 -10 -17 -17 -16 -13 -17 -12 -4 4 13 16
21 21 21 13z m-1609 -109 c11 -22 19 -41 17 -43 -5 -4 -78 121 -78 133 0 11
36 -42 61 -90z m1569 80 c0 -2 -12 -14 -27 -28 l-28 -24 24 28 c23 25 31 32
31 24z m241 -55 c106 -138 141 -291 101 -447 -44 -174 -52 -195 -96 -238 -75
-74 -108 -97 -136 -97 -16 0 -49 -9 -75 -20 -26 -11 -53 -20 -61 -20 -24 0
-16 14 16 28 17 8 30 20 30 28 0 8 5 14 11 14 5 0 7 -5 4 -11 -4 -6 2 -5 14 3
11 7 23 19 26 27 4 10 0 9 -15 -4 -31 -28 -24 -8 13 35 18 22 46 66 62 99 16
33 34 57 39 54 5 -3 6 -1 2 6 -10 15 3 53 15 45 5 -3 8 -2 7 3 -6 24 56 135
114 202 24 27 28 39 23 65 -4 17 -13 41 -21 54 -8 12 -10 22 -5 22 17 0 -50
119 -91 163 -21 23 -38 42 -38 44 0 12 31 -17 61 -55z m-181 34 c0 -2 -8 -10
-17 -17 -16 -13 -17 -12 -4 4 13 16 21 21 21 13z m-1350 -92 c0 -11 25 -49 55
-84 30 -35 55 -69 55 -76 0 -7 -37 -39 -82 -72 -68 -50 -84 -58 -99 -49 -17
10 -15 13 14 31 108 66 137 87 137 97 0 6 -27 39 -61 72 -34 34 -58 53 -54 42
23 -67 20 -79 -40 -133 -53 -49 -59 -52 -75 -37 -16 14 -13 19 36 68 52 52 74
99 74 160 0 25 2 26 20 15 11 -7 20 -22 20 -34z m1401 24 c92 -27 152 -116
153 -226 0 -51 -5 -66 -49 -142 -28 -46 -73 -109 -101 -140 l-52 -55 -98 -7
c-55 -3 -110 -9 -124 -13 -14 -4 -1 8 28 25 29 18 51 35 48 37 -7 7 -118 -59
-123 -73 -2 -6 11 -14 28 -18 l32 -6 -23 -25 c-13 -14 -32 -25 -42 -25 -9 0
-55 -27 -100 -59 -83 -59 -146 -91 -177 -91 -18 0 80 93 171 162 38 29 57 50
58 65 0 31 92 126 220 228 61 49 108 90 106 93 -3 2 -32 -15 -65 -37 -60 -41
-76 -45 -44 -9 23 26 6 22 -53 -11 -27 -16 -75 -56 -105 -88 -36 -39 -82 -74
-134 -102 -44 -24 -105 -57 -135 -74 -30 -16 -50 -25 -45 -20 6 6 53 35 106
64 122 69 126 72 174 143 22 32 60 77 85 99 40 36 41 38 11 21 -18 -10 -63
-52 -99 -92 -54 -60 -82 -82 -152 -117 -111 -56 -206 -124 -309 -221 -47 -44
-79 -69 -73 -58 22 41 114 134 205 206 85 68 89 73 64 76 -21 3 -27 8 -23 20
2 9 7 34 11 54 7 44 14 45 -114 -14 -46 -21 -86 -38 -88 -38 -2 0 11 21 29 46
83 116 274 257 440 326 87 36 97 49 16 23 -67 -22 -156 -67 -233 -117 -43 -27
-51 -30 -28 -11 89 78 267 171 378 199 65 16 177 17 226 2z m-568 -81 c-10
-37 -24 -69 -32 -72 -10 -4 -12 2 -7 26 3 17 6 42 6 55 0 22 36 71 46 61 2 -2
-4 -34 -13 -70z m-2076 -123 c8 4 11 1 8 -5 -4 -6 1 -17 11 -25 18 -14 18 -15
-2 -5 -19 9 -23 7 -34 -19 -7 -17 -17 -33 -21 -36 -5 -3 -2 10 7 29 16 33 16
36 -6 65 -13 17 -27 29 -31 26 -5 -3 -6 2 -3 10 5 12 11 9 31 -15 15 -17 32
-28 40 -25z m2999 -36 l29 -33 -32 29 c-31 28 -38 36 -30 36 2 0 16 -15 33
-32z m-84 -18 c-2 -16 -6 -30 -8 -30 -2 0 -4 14 -4 30 0 17 4 30 8 30 5 0 7
-13 4 -30z m-2832 -16 c0 -2 -9 0 -20 6 -11 6 -20 13 -20 16 0 2 9 0 20 -6 11
-6 20 -13 20 -16z m1823 -41 c-33 -38 -86 -103 -118 -146 -32 -43 -60 -75 -63
-72 -3 2 -12 -1 -21 -7 -9 -7 2 8 25 33 66 73 72 86 17 41 -56 -47 -133 -129
-133 -143 0 -5 -6 -9 -12 -9 -34 0 -329 161 -308 168 5 2 47 -7 92 -19 113
-30 173 -27 273 16 54 23 31 -3 -29 -33 -33 -17 -55 -21 -88 -17 l-43 5 40
-14 c100 -33 96 -34 197 63 90 85 219 200 227 201 1 0 -24 -30 -56 -67z m1074
-10 c-3 -10 -5 -4 -5 12 0 17 2 24 5 18 2 -7 2 -21 0 -30z m-3095 -5 c-8 -8
-9 -4 -5 13 4 13 8 18 11 10 2 -7 -1 -18 -6 -23z m418 -102 c11 -21 7 -28 -41
-77 -69 -71 -119 -174 -119 -247 0 -80 10 -92 78 -92 l57 0 2 -40 c0 -22 -1
-40 -4 -40 -14 0 -151 89 -177 115 -17 17 -47 41 -66 53 -54 32 -84 68 -75 89
4 10 13 46 20 79 24 112 54 153 170 234 l60 42 41 -47 c23 -26 47 -57 54 -69z
m2662 59 c11 -21 8 -18 -32 30 -24 29 -24 29 -2 10 13 -11 28 -29 34 -40z
m-3017 7 c19 -13 19 -14 -4 -7 -15 5 -27 2 -33 -6 -8 -11 -9 -10 -5 2 3 9 0
22 -6 28 -16 16 20 4 48 -17z m1735 18 c-8 -5 -19 -10 -25 -10 -5 0 -3 5 5 10
8 5 20 10 25 10 6 0 3 -5 -5 -10z m-1675 -20 c-10 -11 -22 -20 -28 -20 -5 0 1
9 14 20 31 25 37 25 14 0z m1625 0 c-8 -5 -19 -10 -25 -10 -5 0 -3 5 5 10 8 5
20 10 25 10 6 0 3 -5 -5 -10z m-112 -65 c13 -4 21 -9 19 -12 -9 -8 -105 38
-124 59 -13 15 -5 13 32 -10 28 -16 60 -33 73 -37z m-1648 -25 c6 9 10 10 10
3 0 -6 12 -14 28 -16 23 -3 22 -4 -8 -5 -40 -2 -69 16 -62 38 4 10 8 7 14 -10
7 -20 11 -22 18 -10z m3060 -32 c0 -12 -6 -9 -26 13 -19 22 -19 22 4 8 12 -8
22 -17 22 -21z m-2537 -16 c10 -10 41 -65 70 -123 29 -57 65 -124 79 -149 24
-40 65 -216 54 -228 -3 -2 -20 19 -39 48 -40 60 -147 151 -196 168 -19 7 -54
12 -78 12 -24 0 -55 7 -68 16 -14 9 -25 12 -25 6 0 -12 44 -42 63 -42 7 0 22
-7 33 -15 14 -11 3 -9 -40 5 -71 24 -72 24 -56 5 8 -9 9 -15 2 -15 -6 0 -14 5
-17 10 -10 16 14 107 42 165 25 49 126 155 148 155 7 0 19 -8 28 -18z m501
-209 l30 -20 -25 -13 c-19 -10 -22 -10 -12 0 9 10 -12 36 -96 119 -84 83 -88
87 -17 20 50 -47 104 -94 120 -106z m-319 147 c10 -11 16 -20 13 -20 -3 0 -13
9 -23 20 -10 11 -16 20 -13 20 3 0 13 -9 23 -20z m1137 8 c-7 -7 -17 -13 -23
-13 -5 0 -21 -13 -35 -30 l-26 -30 25 35 c13 19 29 35 35 35 6 0 14 3 18 8 4
4 10 7 13 7 3 0 -1 -6 -7 -12z m-1915 -20 c-3 -8 -6 -5 -6 6 -1 11 2 17 5 13
3 -3 4 -12 1 -19z m60 -13 c-8 -9 -14 -10 -19 -2 -9 16 0 27 17 21 11 -5 12
-9 2 -19z m3063 20 c0 -2 -10 -9 -22 -15 -22 -11 -22 -10 -4 4 21 17 26 19 26
11z m-65 -45 c3 -5 -3 -10 -15 -10 -12 0 -18 5 -15 10 3 6 10 10 15 10 5 0 12
-4 15 -10z m-3069 -13 c4 -4 -2 -7 -14 -7 -12 0 -22 4 -22 9 0 10 26 9 36 -2z
m117 -14 c-18 -2 -48 -2 -65 0 -18 2 -4 4 32 4 36 0 50 -2 33 -4z m910 -117
c23 -16 30 -16 45 -5 15 12 16 12 5 -2 -11 -13 -9 -18 14 -28 27 -12 37 -8 46
19 2 8 3 3 1 -12 -3 -24 5 -32 79 -76 105 -63 112 -65 148 -47 16 9 29 13 29
11 0 -3 -13 -12 -29 -21 -36 -18 -50 -13 -147 45 -38 23 -73 45 -78 47 -4 3
-7 -15 -5 -39 3 -28 0 -44 -6 -42 -6 3 -9 23 -7 47 4 42 3 42 -50 68 -59 30
-124 81 -165 131 -15 18 -1 9 32 -23 33 -30 72 -64 88 -73z m817 120 c0 -2 -8
-10 -17 -17 -16 -13 -17 -12 -4 4 13 16 21 21 21 13z m-1745 -27 c38 4 30 -4
-12 -12 -23 -5 -33 -2 -37 9 -4 10 -2 13 7 7 6 -4 25 -6 42 -4z m2545 -43 c0
-8 -11 -26 -24 -40 -13 -14 -38 -53 -55 -86 -18 -33 -34 -60 -37 -60 -6 0 33
73 76 144 l24 39 -32 -6 c-44 -9 -80 -34 -113 -81 -16 -21 -29 -35 -29 -29 0
5 16 28 35 50 51 60 155 106 155 69z m330 9 c0 -6 -56 -35 -67 -35 -4 1 8 9
27 20 39 22 40 22 40 15z m80 -15 c0 -5 -5 -10 -11 -10 -5 0 -7 5 -4 10 3 6 8
10 11 10 2 0 4 -4 4 -10z m-334 -14 c18 -14 18 -15 -8 -21 -32 -8 -44 -33 -25
-52 12 -12 23 -12 74 1 33 9 78 22 102 31 49 17 45 3 -7 -24 -40 -20 -160 -64
-204 -75 -26 -6 -28 -4 -28 27 0 18 7 54 16 80 17 51 41 61 80 33z m-2644 -13
c-10 -4 -8 -12 10 -32 l23 -26 -27 24 c-25 22 -32 22 -30 0 1 -3 -6 -6 -14 -6
-10 0 -9 7 8 24 12 13 26 23 32 22 6 0 5 -3 -2 -6z m110 -33 c24 -20 43 -28
55 -24 13 5 12 2 -5 -10 -12 -10 -20 -22 -17 -27 4 -5 -1 -9 -9 -9 -9 0 -30
-13 -48 -29 l-33 -29 18 -39 c9 -21 11 -30 4 -20 -37 56 -33 54 -62 27 -22
-21 -24 -26 -11 -35 10 -8 12 -16 5 -26 -7 -11 -9 -11 -9 4 0 17 -15 24 -23
10 -2 -5 -2 -3 -1 4 2 6 -2 14 -9 17 -7 2 -6 5 4 5 8 1 26 12 39 26 23 25 23
26 7 63 -9 20 -11 29 -4 19 34 -52 31 -50 58 -28 13 11 35 30 49 41 l25 20
-35 29 c-19 17 -46 32 -60 34 l-25 4 25 2 c15 0 40 -11 62 -29z m718 5 c13
-14 21 -25 18 -25 -2 0 -15 11 -28 25 -13 14 -21 25 -18 25 2 0 15 -11 28 -25z
m-890 -21 c0 -8 -19 -13 -24 -6 -3 5 1 9 9 9 8 0 15 -2 15 -3z m266 -62 c-17
-16 -18 -16 -5 5 7 12 15 20 18 17 3 -2 -3 -12 -13 -22z m284 -14 c-25 -20
-50 -24 -50 -7 0 5 4 8 9 5 5 -3 14 0 20 7 6 8 18 14 27 14 14 0 13 -4 -6 -19z
m1881 -5 c-12 -20 -14 -14 -5 12 4 9 9 14 11 11 3 -2 0 -13 -6 -23z m-2071
-15 c0 -6 -6 -5 -15 2 -8 7 -15 14 -15 16 0 2 7 1 15 -2 8 -4 15 -11 15 -16z
m310 -22 c0 -12 -43 18 -48 34 -3 8 5 6 21 -6 15 -10 27 -23 27 -28z m338 -66
c35 -17 97 -40 138 -50 66 -17 83 -27 144 -82 145 -131 145 -216 -2 -455 -51
-83 -51 -84 -50 -163 1 -94 -3 -96 -89 -52 -39 20 -63 41 -87 77 -42 64 -84
196 -83 259 1 61 -26 187 -84 387 -25 86 -45 164 -45 173 0 13 12 7 48 -23 26
-22 75 -54 110 -71z m-991 78 c-3 -8 -6 -5 -6 6 -1 11 2 17 5 13 3 -3 4 -12 1
-19z m3072 -5 c-18 -49 -78 -99 -167 -141 -115 -54 -153 -62 -73 -17 105 60
210 134 227 160 21 33 26 32 13 -2z m-1542 -56 c18 -36 11 -58 -37 -100 -48
-44 -109 -56 -163 -33 -42 17 -51 31 -11 16 14 -6 43 -10 66 -10 73 0 137 89
107 148 -23 46 -23 48 1 27 12 -11 29 -33 37 -48z m863 26 c-11 -17 -11 -17
-6 0 3 10 6 24 7 30 0 9 2 9 5 0 3 -7 0 -20 -6 -30z m-1798 -17 c40 -20 78
-56 60 -56 -6 0 -23 11 -38 25 -15 14 -38 28 -51 31 -13 4 -23 10 -23 16 0 5
-4 7 -8 4 -5 -3 -9 1 -9 9 0 12 3 13 16 2 9 -6 33 -21 53 -31z m1887 23 c-6
-12 -29 -41 -51 -65 -39 -43 -43 -64 -10 -64 12 0 13 -3 5 -8 -9 -6 -8 -16 7
-40 11 -18 24 -32 29 -32 5 0 33 18 63 41 l53 40 -45 -40 c-24 -22 -67 -52
-95 -67 -49 -26 -49 -26 -21 -2 l29 24 -27 41 -27 40 -69 -46 c-75 -49 -76
-51 -54 -132 2 -9 -2 -16 -9 -16 -8 0 -11 11 -9 31 2 17 0 41 -5 53 l-8 23
-38 -25 c-20 -14 -37 -23 -37 -21 0 3 18 18 40 32 22 15 40 33 40 40 0 7 4 15
9 18 5 4 7 -3 4 -15 -6 -20 -5 -20 23 -6 16 8 45 28 65 44 31 25 35 31 26 51
l-10 23 -36 -33 -36 -33 36 40 c20 22 42 49 48 60 10 18 11 17 5 -7 -10 -45 5
-53 38 -21 16 15 38 43 50 61 22 36 35 44 17 11z m-2472 -11 c-3 -8 -6 -5 -6
6 -1 11 2 17 5 13 3 -3 4 -12 1 -19z m629 -6 c-4 -3 -14 2 -24 12 -16 18 -16
18 6 6 13 -6 21 -14 18 -18z m-333 -3 c23 -12 56 -34 74 -49 17 -15 47 -33 67
-40 20 -6 41 -20 46 -31 7 -12 21 -19 39 -19 16 0 33 -6 39 -13 9 -10 -3 -21
-52 -50 -34 -20 -66 -37 -70 -37 -4 0 -28 17 -54 39 -26 21 -54 40 -62 43 -20
7 -90 127 -90 155 0 28 10 29 63 2z m442 -108 c21 -22 35 -41 31 -41 -3 0 14
-25 39 -55 55 -69 59 -89 6 -32 -39 41 -40 42 -58 23 -16 -18 -16 -18 0 -7 18
14 24 2 7 -15 -8 -8 -5 -15 7 -25 16 -13 17 -12 5 2 -10 13 -10 19 2 28 12 10
17 8 25 -7 8 -15 7 -23 -4 -32 -8 -6 -11 -19 -7 -28 3 -9 -9 0 -27 20 -18 21
-36 36 -40 33 -4 -2 -32 21 -62 53 -30 31 -43 47 -30 37 14 -11 21 -15 17 -8
-3 7 -21 22 -38 35 -17 12 -29 17 -25 11 4 -7 -7 -7 -36 1 -53 13 -48 8 -57
55 -6 33 -4 40 10 44 25 6 77 -18 129 -61 24 -20 49 -40 55 -44 7 -4 1 -17
-14 -35 l-25 -28 28 25 29 25 24 -30 c14 -17 24 -24 23 -15 0 8 -22 33 -48 55
-27 22 -46 44 -43 48 2 5 19 -6 38 -24 19 -18 36 -30 40 -27 3 3 -13 21 -35
39 -34 27 -41 38 -41 68 l0 36 19 -41 c11 -23 36 -60 56 -83z m445 109 c8 -5
11 -10 5 -10 -5 0 -17 5 -25 10 -8 5 -10 10 -5 10 6 0 17 -5 25 -10z m204 -6
c3 -8 2 -12 -4 -9 -6 3 -10 10 -10 16 0 14 7 11 14 -7z m-110 -20 c3 -8 2 -12
-4 -9 -6 3 -10 10 -10 16 0 14 7 11 14 -7z m-1055 -17 c-28 -21 -59 -36 -59
-29 0 9 37 30 54 31 5 1 7 0 5 -2z m2020 -14 c-100 -121 -113 -134 -127 -128
-26 10 -50 -5 -73 -43 -28 -47 -69 -92 -84 -92 -23 0 -65 -58 -116 -165 -61
-122 -68 -178 -34 -248 17 -36 17 -41 1 -73 -20 -44 -20 -63 1 -86 16 -17 9
-18 -178 -18 l-194 0 67 40 c64 39 120 95 148 150 7 13 16 57 20 97 6 55 13
81 32 105 49 65 61 97 53 152 -7 53 -45 124 -90 166 -24 22 -33 50 -17 50 4 0
75 2 157 4 191 5 341 37 416 90 30 21 36 20 18 -1z m221 -43 c-8 -5 -19 -10
-25 -10 -5 0 -3 5 5 10 8 5 20 10 25 10 6 0 3 -5 -5 -10z m-890 -65 l45 -50
-47 45 c-27 24 -48 48 -48 54 0 5 1 7 3 5 1 -2 22 -27 47 -54z m-1343 -12 c12
-13 18 -23 14 -23 -11 0 -36 30 -50 60 -10 21 -10 22 1 6 7 -11 23 -30 35 -43z
m1313 4 c0 -7 -4 -7 -12 1 -8 8 -19 6 -42 -10 l-31 -21 30 30 c29 28 55 28 55
0z m-1244 -39 l29 -33 -32 29 c-31 28 -38 36 -30 36 2 0 16 -15 33 -32z m1154
2 c0 -5 -10 -10 -22 -9 -22 0 -22 1 -3 9 11 5 21 9 23 9 1 1 2 -3 2 -9z m1223
-215 c2 -90 0 -100 -15 -99 -22 2 -23 -9 -3 -26 12 -10 13 -16 1 -39 -47 -90
-189 -138 -310 -106 -33 9 -66 21 -73 27 -16 13 -17 107 -3 159 9 31 16 38 44
43 19 4 45 15 58 26 22 18 23 20 6 50 l-17 30 147 73 147 73 8 -55 c4 -31 9
-101 10 -156z m-2592 188 c13 -16 12 -17 -3 -4 -10 7 -18 15 -18 17 0 8 8 3
21 -13z m1537 -8 c1 -5 4 -22 8 -37 4 -20 0 -37 -16 -60 -19 -29 -21 -30 -16
-9 3 14 -3 44 -14 67 -10 23 -16 45 -14 47 9 9 51 2 52 -8z m42 -25 c23 -45
27 -68 5 -30 l-14 25 -1 -30 c0 -16 -11 -59 -25 -95 -13 -36 -32 -91 -40 -122
-21 -73 -32 -84 -97 -93 -29 -4 -81 -13 -116 -20 -66 -13 -73 -10 -19 11 17 7
60 23 94 36 80 30 96 46 117 115 10 32 29 76 43 98 32 48 45 102 32 127 -5 10
-7 18 -5 18 3 0 15 -18 26 -40z m710 25 c0 -2 -22 -16 -50 -30 -27 -14 -50
-23 -50 -20 0 2 21 16 48 29 53 28 52 28 52 21z m-823 -11 c-3 -3 -12 -4 -19
-1 -8 3 -5 6 6 6 11 1 17 -2 13 -5z m581 -13 c-9 -15 -8 -24 6 -46 10 -16 23
-24 32 -21 7 3 13 1 11 -4 -1 -5 13 -20 32 -34 19 -14 30 -26 24 -26 -19 0
-97 64 -112 92 -13 22 -13 29 -2 42 18 22 24 20 9 -3z m-2007 -8 c13 -16 12
-17 -3 -4 -10 7 -18 15 -18 17 0 8 8 3 21 -13z m699 -3 c0 13 1 13 10 0 7 -11
5 -19 -8 -30 -10 -9 -17 -21 -14 -28 2 -8 13 -1 28 19 18 24 24 28 26 16 0 -9
1 -23 2 -29 1 -7 -8 -13 -18 -13 -11 0 -21 -6 -24 -14 -3 -8 0 -11 6 -7 12 7
51 -11 64 -29 9 -12 -19 -42 -29 -31 -4 4 -1 11 7 16 12 8 12 10 1 10 -8 0
-20 8 -28 18 -13 15 -14 15 -8 -8 3 -15 -3 -8 -18 18 -15 28 -22 54 -19 74 3
21 7 26 13 17 7 -11 9 -11 9 1z m749 -17 c-1 -10 -5 -29 -9 -43 l-8 -25 -1 29
c-1 24 -4 27 -23 22 -13 -3 -29 -6 -36 -6 -7 0 -17 -10 -22 -22 -7 -19 -9 -20
-9 -4 -1 12 -6 16 -15 13 -15 -6 -33 29 -22 40 3 4 6 -1 6 -9 0 -14 5 -13 37
3 49 25 103 26 102 2z m541 -37 c0 -6 -5 -5 -12 2 -9 9 -16 8 -32 -6 -21 -17
-21 -17 -3 4 9 11 17 27 17 34 0 16 29 -19 30 -34z m-553 -122 c-22 -62 -35
-84 -54 -93 -13 -6 -28 -9 -33 -6 -5 3 -11 1 -15 -5 -4 -6 -11 -8 -16 -5 -5 4
-9 2 -9 -2 0 -5 -15 -14 -32 -20 l-33 -12 30 24 c27 22 87 43 108 37 5 -1 5 7
2 19 -5 15 -4 19 4 15 6 -4 11 0 11 8 0 9 -8 16 -17 17 -14 0 -13 2 4 9 57 23
49 84 -10 74 -25 -4 -28 -3 -17 5 21 15 67 14 73 -1 2 -7 8 5 13 27 7 35 8 37
14 16 3 -15 -6 -57 -23 -107z m130 104 c-3 -8 -6 -5 -6 6 -1 11 2 17 5 13 3
-3 4 -12 1 -19z m-807 -8 c0 -5 -4 -10 -10 -10 -5 0 -10 5 -10 10 0 6 5 10 10
10 6 0 10 -4 10 -10z m1265 -13 c4 5 5 3 2 -3 -3 -6 8 -18 24 -28 17 -10 28
-20 26 -23 -3 -2 -24 7 -47 22 -41 26 -42 26 -63 8 -22 -18 -22 -18 -6 2 9 11
14 26 12 33 -4 11 1 10 19 -2 14 -9 28 -13 33 -9z m-699 -30 c9 3 14 0 12 -8
-2 -8 3 -13 11 -11 8 2 29 5 45 8 25 4 27 3 11 -5 -11 -5 -32 -12 -46 -15 -14
-3 -38 -18 -53 -33 l-27 -27 12 27 c6 14 15 24 20 22 4 -3 11 0 15 6 4 6 -1
16 -10 21 -9 5 -15 20 -15 36 l2 27 4 -27 c3 -19 9 -25 19 -21z m572 1 c-19
-23 -39 -43 -45 -45 -5 -2 8 17 31 42 51 57 60 59 14 3z m-377 -34 c-10 -33
-22 -90 -26 -129 -10 -102 -20 -128 -76 -180 -54 -50 -180 -115 -225 -115 -15
0 -24 3 -21 6 3 4 -3 18 -13 32 -43 53 -11 142 57 162 21 5 72 13 113 17 l75
6 -57 -62 c-32 -34 -63 -72 -69 -84 -17 -32 76 60 109 108 15 22 37 48 49 58
13 10 28 37 34 60 18 69 61 188 66 184 2 -3 -5 -31 -16 -63z m75 -12 c-23 -46
-46 -74 -46 -56 0 19 56 121 63 114 5 -4 -3 -30 -17 -58z m225 49 c-6 -10 -10
-35 -9 -54 1 -34 3 -36 29 -30 27 5 28 4 22 -31 -4 -29 0 -44 22 -76 15 -22
29 -40 31 -40 2 0 -8 24 -21 53 -43 94 -6 149 75 112 22 -10 40 -22 40 -27 0
-5 -13 -2 -30 7 -16 8 -39 15 -51 15 -19 0 -20 -2 -8 -17 12 -15 12 -16 -3
-10 -11 4 -18 2 -18 -6 0 -7 14 -13 31 -14 38 -3 101 -34 107 -53 4 -11 0 -10
-12 2 -17 17 -76 38 -108 38 -26 0 -22 -18 18 -87 25 -42 45 -64 63 -69 14 -3
20 -9 13 -11 -6 -3 -10 -9 -6 -14 3 -5 -3 -9 -13 -9 -15 0 -16 -2 -3 -10 8 -5
35 -10 58 -10 24 0 58 -7 75 -15 38 -18 100 -69 74 -61 -10 3 -59 11 -110 17
-70 8 -100 17 -123 34 -17 13 -33 22 -35 20 -2 -2 -20 10 -39 27 l-35 30 39
-28 c29 -20 38 -23 33 -11 -4 10 -1 17 6 17 7 0 -23 19 -65 41 -42 22 -79 47
-82 56 -4 8 7 4 25 -11 40 -34 51 -25 16 10 -15 15 -27 36 -28 48 -1 11 -3 48
-5 81 -2 41 1 67 12 82 18 28 29 31 15 4z m398 -10 c11 -7 10 -11 -7 -20 -11
-6 -28 -11 -36 -11 -14 0 -14 3 1 20 20 22 22 23 42 11z m-1439 -52 c0 -10 5
-19 11 -19 5 0 7 -4 4 -10 -3 -5 -16 -10 -28 -10 -17 0 -19 2 -8 9 12 8 12 12
2 25 -7 8 -10 20 -6 26 9 15 25 2 25 -21z m-30 -14 c0 -5 -5 -3 -10 5 -5 8
-10 20 -10 25 0 6 5 3 10 -5 5 -8 10 -19 10 -25z m1386 -7 c-4 -13 -10 -54
-13 -92 l-6 -70 -17 45 c-31 79 -32 84 -9 112 26 34 54 37 45 5z m-806 -13
c-19 -7 -42 -13 -50 -13 -8 0 1 6 20 13 19 7 42 13 50 13 8 0 -1 -6 -20 -13z
m-511 -64 c6 -27 19 -73 30 -102 11 -29 16 -48 11 -43 -15 15 -79 178 -73 186
11 19 22 4 32 -41z m956 -42 c-4 -6 13 -29 37 -51 40 -38 41 -40 10 -22 -44
25 -60 44 -62 74 -3 39 0 47 11 27 5 -9 7 -22 4 -28z m205 11 c11 -7 7 -10
-17 -10 -18 0 -33 5 -33 10 0 13 30 13 50 0z m-219 -57 c6 -6 55 -43 110 -83
l100 -71 113 -19 c137 -23 221 -53 243 -86 8 -14 14 -26 12 -28 -2 -3 -67 -6
-144 -7 -140 -3 -140 -3 -201 28 -34 18 -76 44 -93 59 -43 36 -161 219 -160
247 2 20 2 19 6 -3 3 -14 9 -30 14 -37z m268 23 c10 -12 5 -13 -31 -9 -58 7
-73 23 -21 23 23 0 46 -6 52 -14z m28 -18 c-3 -8 -6 -5 -6 6 -1 11 2 17 5 13
3 -3 4 -12 1 -19z m2 -30 c38 -14 20 -18 -29 -6 -55 13 -81 34 -30 23 19 -4
46 -12 59 -17z m-559 -48 c-6 -12 -14 -19 -17 -17 -2 3 1 15 7 27 6 12 14 19
17 17 2 -3 -1 -15 -7 -27z m299 -42 c12 -21 20 -38 17 -38 -10 0 -54 65 -61
90 -7 24 -6 24 7 5 8 -11 25 -37 37 -57z m296 52 c14 -7 8 -8 -20 -3 -22 3
-42 7 -44 9 -9 8 45 2 64 -6z m-634 -69 c-6 -11 -20 -25 -31 -31 -32 -17 -25
14 7 38 33 24 39 22 24 -7z m344 -37 c17 -4 50 -25 75 -47 25 -22 72 -53 105
-68 33 -16 54 -29 47 -29 -25 0 -87 31 -137 69 -27 21 -72 46 -98 56 -46 17
-79 43 -41 32 11 -4 33 -9 49 -13z m9 -45 c22 -10 60 -37 84 -59 38 -35 117
-70 159 -70 7 0 13 -4 13 -10 0 -6 40 -10 100 -10 65 0 100 -4 100 -11 0 -13
-238 -5 -285 10 -52 15 -65 23 -59 32 3 5 -2 9 -11 9 -8 0 -32 11 -53 24 -20
13 -60 32 -89 42 -54 18 -67 32 -56 60 7 18 33 14 97 -17z"/>
<path d="M2733 4607 c-35 -11 -63 -25 -63 -30 0 -12 38 -2 102 27 65 30 44 31
-39 3z"/>
<path d="M2421 3605 c0 -5 6 -21 14 -35 8 -14 14 -20 14 -15 0 6 -6 21 -14 35
-8 14 -14 21 -14 15z"/>
<path d="M2450 3534 c0 -15 71 -121 96 -144 28 -25 28 -25 -3 15 -16 22 -42
61 -57 88 -26 44 -36 55 -36 41z"/>
<path d="M2989 3203 c-13 -16 -12 -17 4 -4 16 13 21 21 13 21 -2 0 -10 -8 -17
-17z"/>
<path d="M2103 3567 c-23 -7 -45 -16 -50 -21 -5 -5 2 -6 17 -2 14 3 42 9 63
12 20 4 37 10 37 15 0 11 -14 10 -67 -4z"/>
<path d="M3270 3235 c-8 -9 -8 -15 -2 -15 12 0 26 19 19 26 -2 2 -10 -2 -17
-11z"/>
<path d="M2101 3197 c-6 -6 -11 -21 -11 -33 0 -19 7 -23 55 -29 38 -4 53 -10
49 -18 -5 -9 -4 -9 5 -1 6 6 13 24 14 39 2 27 -1 30 -50 41 -37 8 -55 8 -62 1z"/>
<path d="M2878 2888 c-21 -6 -38 -13 -38 -17 0 -12 113 4 118 17 4 14 -26 14
-80 0z"/>
<path d="M3884 2508 c7 -43 12 -55 20 -47 9 8 -7 89 -17 89 -6 0 -7 -16 -3
-42z"/>
<path d="M1261 2475 c-16 -71 -12 -76 103 -133 64 -32 95 -55 131 -97 26 -31
65 -65 88 -76 l40 -21 -38 53 c-135 186 -144 197 -199 228 -31 18 -68 48 -84
67 l-29 35 -12 -56z"/>
<path d="M1732 2455 c6 -19 101 -155 105 -151 7 7 -42 87 -77 126 -17 19 -30
31 -28 25z"/>
<path d="M1655 2369 c4 -13 16 -34 27 -46 18 -19 37 -28 123 -58 27 -9 -21 33
-99 87 -53 37 -57 38 -51 17z"/>
<path d="M3506 2044 c-27 -24 -46 -48 -42 -51 4 -4 30 16 59 45 63 64 51 68
-17 6z"/>
<path d="M1327 1553 c-10 -10 -8 -53 2 -53 5 0 7 9 4 21 -4 12 0 25 8 30 8 5
9 9 3 9 -6 0 -14 -3 -17 -7z"/>
<path d="M1370 1521 c-7 -15 -7 -22 2 -27 7 -4 10 -4 6 1 -4 4 -3 16 3 26 5
11 7 19 5 19 -3 0 -10 -9 -16 -19z"/>
<path d="M1550 1460 c0 -5 5 -10 11 -10 5 0 7 5 4 10 -3 6 -8 10 -11 10 -2 0
-4 -4 -4 -10z"/>
<path d="M1470 1418 c0 -2 13 -16 28 -31 l28 -27 -1 24 c0 13 -4 28 -9 33 -5
5 -7 1 -3 -10 6 -16 5 -16 -18 -1 -14 9 -25 14 -25 12z"/>
<path d="M3820 644 c-100 -18 -99 -17 -35 -25 149 -17 867 -5 780 13 -42 9
-702 20 -745 12z"/>
</g>
</svg>