<?xml version="1.0" standalone="no"?>
<!DOCTYPE svg PUBLIC "-//W3C//DTD SVG 20010904//EN"
 "http://www.w3.org/TR/2001/REC-SVG-20010904/DTD/svg10.dtd">
<svg version="1.0" xmlns="http://www.w3.org/2000/svg"
 width="512.000000pt" height="512.000000pt" viewBox="0 0 512.000000 512.000000"
 preserveAspectRatio="xMidYMid meet">
<metadata>
Created by potrace 1.16, written by Peter Selinger 2001-2019
</metadata>
<g transform="translate(0.000000,512.000000) scale(0.100000,-0.100000)"
fill="#000000" stroke="none">
<path d="M450 4966 c0 -85 4 -157 9 -160 13 -8 177 -35 746 -121 275 -42 508
-78 518 -81 15 -5 17 -19 17 -118 l0 -113 -117 19 c-65 10 -230 36 -368 59
-251 40 -936 149 -942 149 -2 0 -3 67 -3 149 0 114 -3 153 -14 163 -16 16
-283 74 -294 64 -12 -12 19 -24 127 -46 58 -12 111 -27 118 -34 15 -13 30
-270 17 -278 -8 -5 -174 21 -242 37 -19 5 -23 2 -20 -12 4 -20 79 -35 678
-128 228 -36 453 -72 500 -80 47 -8 204 -33 350 -55 318 -49 500 -79 520 -86
12 -5 12 -8 -5 -22 -57 -48 -75 -82 -75 -141 0 -66 17 -95 75 -131 62 -39 19
-55 -50 -20 -43 23 -92 20 -132 -6 -12 -8 -40 -14 -62 -14 -48 0 -133 -32
-179 -66 -18 -14 -46 -51 -62 -83 l-29 -59 -48 5 c-26 3 -111 13 -188 23 -77
9 -142 16 -144 14 -11 -10 20 -16 180 -36 96 -12 177 -24 181 -27 4 -4 -15
-61 -43 -128 l-51 -120 -41 4 c-172 16 -411 32 -415 28 -3 -3 1 -5 9 -6 8 0
109 -10 224 -23 196 -20 210 -23 208 -41 0 -11 -29 -103 -64 -203 l-63 -184
-195 7 c-108 4 -227 10 -266 14 l-70 6 -6 95 -5 95 -2 -96 c-1 -67 2 -100 11
-107 12 -9 348 -32 476 -32 56 0 62 -2 56 -17 -3 -10 -13 -43 -22 -74 l-15
-56 -47 4 c-106 8 -445 23 -512 23 -63 0 -71 -2 -59 -14 12 -11 84 -17 310
-28 l295 -13 7 -66 c9 -94 122 -383 170 -436 15 -16 19 -29 14 -48 l-6 -25
-223 2 -222 3 -6 105 -5 105 -2 -106 -2 -106 -67 -6 c-38 -4 -94 -7 -125 -7
-32 0 -58 -4 -58 -10 0 -6 74 -10 203 -10 112 0 265 -3 339 -6 l135 -7 1 -106
c1 -158 12 -273 29 -299 8 -13 13 -26 10 -28 -2 -2 -72 -7 -155 -11 l-152 -6
0 59 c0 32 -3 97 -7 144 -6 76 -8 81 -14 45 -13 -70 -11 -275 4 -280 6 -3 83
-1 171 3 103 4 160 4 161 -3 2 -5 6 -45 9 -87 5 -75 5 -78 -17 -82 -12 -2
-150 -9 -307 -16 -358 -13 -676 -29 -757 -36 -46 -4 -63 -10 -63 -20 0 -12 13
-14 73 -9 256 19 921 55 1035 55 l52 0 0 -43 c0 -23 -7 -70 -16 -102 -8 -33
-18 -92 -21 -132 -3 -39 -9 -76 -13 -82 -3 -7 -49 -16 -101 -21 -52 -6 -106
-12 -121 -15 l-28 -4 0 100 c0 71 4 101 12 104 7 3 63 11 123 19 l110 15 -114
-6 c-63 -2 -120 -7 -128 -10 -9 -4 -13 -25 -13 -68 0 -35 -4 -66 -9 -70 -6 -3
-121 -14 -258 -25 -136 -11 -318 -26 -403 -34 -101 -10 -158 -11 -165 -5 -5 6
-12 70 -13 144 -2 77 -8 133 -13 129 -5 -3 -9 -72 -9 -153 l0 -149 -107 -15
-108 -16 100 4 c55 2 123 9 150 15 28 5 91 11 140 13 l90 2 3 -137 c2 -104 6
-139 17 -148 23 -19 27 5 23 159 l-3 140 45 5 c25 4 131 13 235 21 105 8 202
17 218 20 25 4 27 2 28 -33 l1 -37 13 40 13 40 1 -42 c1 -24 2 -43 4 -43 1 0
60 7 131 15 71 8 132 13 134 10 9 -9 -28 -220 -64 -369 -20 -77 -34 -156 -32
-173 4 -37 13 -34 -142 -53 -128 -15 -1127 -120 -1145 -120 -8 0 -15 -7 -15
-16 0 -12 8 -14 43 -9 23 3 240 26 482 51 242 24 516 53 610 64 93 11 190 20
215 21 49 2 143 -22 202 -52 37 -19 39 -19 130 1 51 11 113 20 138 19 l45 -1
-57 -12 c-74 -16 -79 -22 -25 -30 44 -7 193 17 211 34 16 15 -5 30 -42 30 -20
0 -99 5 -174 12 l-137 12 6 30 c3 17 9 35 13 39 4 5 81 3 171 -4 148 -11 169
-11 214 4 27 10 81 20 120 23 l70 5 -65 -25 c-130 -49 -180 -71 -180 -78 0
-11 46 -10 95 2 29 6 52 5 79 -4 34 -12 48 -11 110 5 95 25 341 34 671 24
l260 -8 -116 -23 c-135 -27 -194 -48 -114 -39 44 4 157 30 290 67 22 6 128 11
236 12 l197 0 -61 27 -61 27 34 6 c19 3 184 15 365 26 419 25 713 46 933 65
95 8 182 15 193 15 10 0 19 7 19 15 0 19 25 19 -327 -10 -319 -26 -697 -51
-908 -60 -71 -3 -147 -8 -167 -10 l-38 -5 0 135 c0 99 3 137 13 140 6 3 39 9
72 15 l60 9 -69 -4 c-37 -3 -75 -10 -82 -16 -11 -9 -14 -43 -14 -145 l0 -134
-24 0 c-19 0 -25 6 -28 27 -2 21 -10 29 -35 35 -19 5 -33 15 -33 24 0 31 -29
70 -69 92 -29 17 -64 25 -127 29 -76 5 -87 8 -94 28 -5 13 -36 38 -72 57 -47
26 -64 41 -66 59 -2 13 -8 28 -13 34 -5 5 -9 19 -9 31 0 24 2 24 308 65 89 12
162 26 162 30 0 5 -3 9 -8 9 -22 0 -475 -61 -481 -65 -13 -8 -47 48 -54 87 -5
34 -3 40 26 59 86 59 103 92 71 137 -9 13 -13 26 -10 29 3 3 196 21 428 39
233 18 424 33 425 34 1 0 3 118 6 263 2 144 8 273 12 286 l8 23 339 -3 c327
-4 340 -3 354 15 8 11 14 35 14 53 l0 33 60 0 60 0 0 -55 0 -55 -49 0 c-78 0
-81 -3 -81 -80 0 -37 -3 -95 -6 -129 l-7 -61 -89 0 c-123 0 -128 -3 -128 -95
0 -40 -4 -76 -9 -79 -5 -3 -75 -11 -157 -17 -82 -6 -154 -16 -161 -23 -17 -16
-23 -314 -6 -320 6 -3 13 -1 15 5 3 9 89 19 343 39 132 10 595 40 628 40 9 0
17 5 17 10 0 6 -22 10 -50 10 -47 0 -50 2 -50 25 0 23 3 25 50 25 28 0 50 4
50 10 0 6 -18 7 -45 3 l-45 -6 0 111 0 112 28 -6 c16 -3 35 1 47 10 19 14 17
15 -27 9 -40 -5 -48 -3 -48 11 0 20 7 20 -310 2 -135 -8 -249 -11 -254 -6 -4
4 -5 31 -1 59 l7 51 141 0 c78 0 199 3 269 7 l127 6 3 -44 c3 -37 6 -44 23
-41 11 1 35 3 52 5 18 1 33 7 33 14 0 8 -9 9 -32 2 -60 -17 -59 -19 -56 108
l3 118 43 3 c23 2 42 8 42 14 0 7 -14 8 -37 4 -21 -3 -43 -6 -50 -6 -7 0 -14
-31 -18 -85 l-7 -85 -159 0 -159 0 0 30 0 29 117 3 117 3 -3 103 c-2 79 0 102
11 102 10 0 10 2 -1 9 -8 5 -24 6 -37 1 -12 -5 -31 -6 -43 -3 -18 4 -21 13
-21 54 l0 49 145 0 c83 0 145 4 145 9 0 6 -15 11 -32 13 -32 3 -33 5 -38 53
-4 45 -8 52 -38 65 l-32 15 2 80 3 80 68 -3 c42 -2 67 1 67 7 0 6 -20 11 -45
11 l-44 0 -3 63 -3 62 -120 6 c-66 4 -121 7 -122 8 -2 0 -3 17 -3 36 0 41 -14
40 190 21 133 -13 161 -13 149 -2 -4 4 -212 24 -296 29 l-43 2 0 109 c0 107 0
108 23 103 12 -3 64 -9 115 -13 l92 -7 0 -59 0 -60 -112 6 c-69 3 -103 2 -87
-3 15 -5 78 -12 140 -15 63 -4 126 -9 142 -12 16 -3 27 -1 27 5 0 6 -19 11
-44 11 -50 0 -56 8 -56 76 l0 44 53 1 c98 1 17 16 -190 35 l-203 18 0 29 0 29
68 -7 c37 -3 134 -15 216 -26 82 -10 152 -16 155 -13 11 11 -23 22 -88 28
-115 12 -111 9 -111 83 0 55 2 64 16 59 9 -3 29 -6 45 -6 26 0 29 -4 29 -30 0
-16 5 -30 10 -30 6 0 10 11 10 25 0 23 4 25 48 25 74 0 31 17 -64 25 l-82 7
-4 59 c-2 33 -1 59 2 59 3 -1 47 -7 98 -14 50 -7 92 -9 92 -5 0 5 -18 12 -40
15 -40 7 -40 7 -40 51 l0 45 40 -4 c82 -8 36 8 -72 26 -62 9 -115 19 -117 22
-2 2 -4 17 -4 33 0 20 -4 28 -14 24 -15 -6 -43 14 -43 31 0 12 14 11 245 -19
31 -4 46 -3 40 3 -5 5 -57 15 -115 21 -172 20 -160 15 -160 73 l0 51 48 -7
c111 -16 131 -14 47 4 -49 11 -91 19 -93 20 -2 0 -2 45 0 100 2 82 1 97 -9 83
-9 -11 -13 -60 -13 -155 l0 -138 -35 0 -35 0 0 51 c0 51 0 51 30 47 39 -6 39
8 0 17 l-30 7 0 88 c0 69 -3 90 -17 101 -15 13 -15 12 -5 -8 7 -12 12 -58 12
-103 0 -79 -1 -81 -22 -78 -21 3 -23 9 -26 68 -2 35 -8 70 -13 76 -6 7 -42 18
-82 24 -100 17 -481 87 -544 100 l-53 12 0 310 c0 171 -2 309 -4 307 -2 -2 -6
-140 -8 -306 -2 -193 -7 -303 -13 -303 -5 0 -37 5 -70 10 -225 38 -508 80
-527 79 -13 -1 51 -14 142 -29 412 -71 645 -115 650 -121 3 -3 37 -12 75 -19
99 -17 409 -70 413 -70 1 0 2 -103 2 -230 0 -126 -4 -230 -8 -230 -19 0 -419
50 -442 56 -18 4 -22 2 -14 -6 6 -6 102 -22 215 -36 112 -13 214 -27 227 -30
l22 -4 0 -300 c0 -164 -3 -301 -8 -303 -4 -3 -120 3 -257 14 -138 10 -253 18
-257 19 -5 0 -8 50 -8 112 l0 111 98 -6 c53 -4 156 -9 227 -11 l130 -5 -115
13 c-63 8 -218 22 -345 31 l-230 17 -53 35 c-53 34 -55 34 -132 27 -87 -7 -88
-6 -105 69 -3 15 -16 32 -28 38 -15 7 -40 45 -70 105 -35 70 -51 92 -62 88
-20 -8 -19 -30 5 -83 11 -24 19 -45 18 -46 -9 -7 -139 -55 -150 -55 -7 -1 -24
-7 -38 -14 -21 -12 -29 -12 -51 0 -15 7 -57 16 -95 20 -42 4 -88 15 -116 30
-26 13 -61 24 -77 24 -37 0 -42 12 -47 130 -4 85 -2 104 21 163 18 49 25 87
25 137 l0 69 48 -5 c273 -28 486 -54 491 -59 3 -4 7 -59 9 -123 2 -64 8 -121
13 -126 6 -6 9 -6 9 2 0 7 15 9 47 6 186 -19 567 -54 587 -54 l26 0 0 229 c0
158 -3 232 -11 237 -8 5 -10 -56 -8 -219 2 -124 2 -227 -1 -230 -3 -2 -61 2
-130 8 -69 7 -214 21 -322 31 l-198 18 0 113 0 113 33 1 32 1 -30 8 c-24 7
-541 60 -584 60 -6 0 -11 5 -11 11 0 6 -7 26 -16 45 -19 39 -16 43 53 80 31
17 32 17 83 -9 29 -15 57 -27 64 -27 7 0 25 14 41 30 l30 31 32 -38 c31 -35
34 -36 49 -21 16 16 15 19 -10 53 -32 41 -30 72 8 110 16 16 32 22 52 19 16
-2 22 -1 13 2 -11 3 -15 13 -12 29 3 13 0 40 -7 59 -10 32 -9 42 11 84 21 42
23 60 22 170 l-2 123 -34 47 c-19 26 -42 72 -52 102 -10 30 -20 50 -22 43 -2
-6 3 -27 11 -47 l15 -35 -75 59 c-42 33 -84 65 -95 70 -22 12 -26 40 -6 40 7
0 71 -14 143 -31 71 -16 158 -34 194 -39 36 -4 177 -36 315 -69 137 -34 252
-61 255 -61 3 0 4 108 2 240 -4 312 -21 320 -24 12 l-3 -229 -120 28 c-108 26
-230 53 -537 121 l-98 21 0 121 c0 97 3 126 17 146 l17 25 -22 -19 c-20 -18
-22 -28 -22 -143 l0 -125 -42 7 c-24 4 -81 16 -127 26 -86 21 -111 20 -111 -5
0 -27 -43 -25 -194 10 -83 19 -159 38 -170 41 -11 3 -16 1 -12 -5 4 -6 69 -26
146 -43 77 -18 140 -36 140 -39 0 -11 -88 -60 -109 -60 -14 0 -21 -6 -21 -19
0 -18 -36 -55 -63 -64 -9 -3 -9 -7 1 -19 10 -12 8 -21 -12 -51 -13 -19 -23
-37 -21 -39 1 -2 5 -60 9 -131 6 -106 5 -128 -7 -133 -8 -3 -43 12 -79 34 -77
47 -147 79 -193 88 -40 7 -111 -22 -202 -84 l-58 -39 -135 23 c-194 35 -180
22 -180 153 0 120 -9 141 -57 141 -51 0 -1174 170 -1225 186 -16 5 -18 21 -18
155 0 93 -4 149 -10 149 -6 0 -10 -58 -10 -154z m2607 -128 c9 -7 10 -15 2
-29 -5 -10 -8 -19 -5 -19 4 0 -22 -101 -28 -107 -2 -2 -24 4 -50 13 -35 12
-45 20 -42 33 3 9 8 33 12 54 3 20 10 37 14 37 4 0 5 11 3 24 -5 24 -4 24 38
15 24 -6 49 -15 56 -21z m-117 -31 c0 -8 -23 -24 -52 -38 -101 -47 -121 -77
-67 -104 l30 -16 -25 -20 c-14 -11 -42 -26 -63 -33 -30 -10 -38 -18 -38 -37 0
-17 -7 -25 -23 -27 -20 -3 -22 -9 -22 -64 0 -53 -2 -59 -15 -48 -11 9 -15 33
-15 86 0 63 4 81 26 116 19 30 23 43 14 46 -8 3 -2 13 16 28 45 38 141 104
166 114 34 13 68 12 68 -3z m128 -72 c-12 -25 -23 -43 -24 -42 -7 6 31 95 38
91 4 -3 -2 -25 -14 -49z m164 -77 c41 -40 50 -50 19 -22 -31 27 -77 65 -103
83 -54 36 -63 49 -19 27 16 -9 62 -48 103 -88z m-232 17 c14 -8 20 -14 15 -15
-6 0 -16 -13 -22 -30 -10 -28 -13 -29 -42 -19 -32 11 -35 18 -25 57 7 26 36
29 74 7z m-50 -75 c12 -6 16 -17 13 -30 -3 -11 -8 -18 -12 -16 -3 2 -7 -12 -8
-33 -1 -27 5 -43 24 -63 14 -14 22 -31 19 -37 -4 -6 -3 -11 2 -11 5 0 8 -27 7
-60 -1 -43 -7 -66 -21 -81 -32 -36 -72 -51 -115 -44 -48 8 -62 25 -17 21 18
-2 24 -1 14 1 -11 3 -30 12 -43 20 -13 9 -26 13 -30 9 -3 -3 -1 -6 6 -6 7 0 9
-5 5 -12 -4 -7 -3 -8 4 -4 8 5 10 2 6 -9 -12 -31 -54 26 -69 94 -5 23 -4 31 3
27 7 -4 14 8 18 29 7 41 56 95 85 95 22 0 53 59 58 113 1 10 29 9 51 -3z m324
-41 c44 -34 59 -76 60 -159 0 -41 -5 -84 -11 -94 -11 -21 -4 -28 -75 73 l-31
45 -43 -47 c-38 -40 -44 -52 -44 -90 0 -51 24 -115 45 -124 28 -10 66 7 85 39
l19 32 10 -28 c25 -63 24 -73 -8 -95 -16 -12 -36 -37 -43 -57 -9 -26 -17 -34
-30 -31 -12 4 -18 -1 -18 -12 0 -18 -49 -71 -66 -71 -11 0 -164 125 -176 144
-15 22 -7 36 30 51 43 18 97 68 118 107 8 15 18 65 23 110 8 77 42 178 72 215
17 19 53 16 83 -8z m-414 -31 c0 -7 -19 -21 -41 -32 -32 -15 -47 -30 -66 -70
-22 -46 -24 -47 -18 -16 9 46 45 93 87 113 40 20 38 20 38 5z m191 -71 c72
-141 -12 -286 -159 -274 -32 2 -60 10 -70 21 -16 16 -14 17 34 10 53 -6 96 7
123 40 14 16 36 12 26 -5 -4 -5 -2 -9 3 -9 6 0 13 7 16 16 3 8 2 12 -4 9 -15
-9 -12 17 4 38 11 14 15 15 19 5 3 -7 6 10 6 37 0 28 -7 64 -15 80 -8 17 -12
22 -9 12 13 -48 16 -95 6 -101 -6 -4 -13 12 -17 44 -4 28 -18 67 -31 87 -28
41 -23 55 9 27 23 -19 23 -19 6 2 -26 30 -22 37 8 18 14 -10 34 -35 45 -57z
m-683 -63 l37 -15 -25 -20 c-25 -19 -25 -19 -5 -35 34 -27 133 -74 155 -74 19
0 17 3 -12 27 -18 15 -35 28 -37 30 -2 2 -2 5 1 8 13 13 94 -38 162 -103 64
-60 69 -68 38 -52 -58 30 -138 42 -202 30 -64 -12 -172 -61 -249 -114 -29 -20
-61 -36 -71 -36 -28 0 -70 56 -70 93 0 28 14 45 100 127 55 52 100 99 100 103
0 26 -173 -104 -235 -175 -19 -23 -36 -35 -40 -29 -20 33 192 214 283 241 15
5 28 9 30 9 1 1 19 -6 40 -15z m871 -65 l15 -24 -23 20 c-12 11 -21 15 -19 9
2 -6 -8 -21 -22 -33 -16 -14 -19 -19 -7 -15 23 8 67 -3 67 -18 0 -6 -8 -17
-17 -24 -10 -7 -18 -18 -18 -26 0 -7 -9 -13 -20 -13 -29 0 -50 68 -34 107 12
29 37 50 53 45 5 -2 16 -14 25 -28z m-497 -144 c9 -19 8 -19 -9 1 -10 12 -33
41 -51 65 l-34 44 42 -45 c23 -24 46 -54 52 -65z m-78 -35 c80 -30 147 -98
191 -192 19 -42 35 -89 34 -105 0 -23 -3 -20 -18 22 -31 85 -57 129 -108 176
-85 80 -217 105 -345 66 -66 -20 -177 -92 -265 -171 -63 -57 -73 -64 -73 -46
0 34 161 170 260 220 107 55 227 66 324 30z m-64 -49 c0 -5 -30 -16 -66 -25
-83 -21 -130 -45 -171 -88 -48 -50 -73 -113 -73 -186 0 -59 -1 -62 -19 -52
-11 5 -24 10 -30 10 -16 0 -14 -50 4 -99 8 -22 13 -41 12 -41 -1 0 -31 9 -67
20 -36 11 -67 20 -69 20 -19 0 61 -63 96 -76 24 -9 41 -19 38 -22 -10 -10
-134 59 -159 89 -29 34 -41 86 -31 126 7 32 149 176 237 242 81 60 159 90 236
91 34 0 62 -4 62 -9z m69 -20 c10 -7 6 -14 -19 -32 -29 -22 -31 -27 -25 -65 5
-39 4 -42 -45 -83 -49 -42 -50 -43 -50 -99 1 -31 6 -67 13 -79 31 -56 216
-160 263 -149 17 5 24 2 24 -9 0 -24 -27 -18 -124 29 -133 63 -164 92 -206
188 -20 45 -40 83 -47 85 -6 2 -20 -16 -32 -40 -22 -46 -28 -116 -11 -148 6
-10 8 -19 5 -19 -3 0 -13 16 -21 35 -46 111 26 264 170 357 60 39 80 44 105
29z m584 -134 c-4 -6 -14 -1 -25 12 -26 34 -22 48 7 21 13 -12 22 -27 18 -33z
m-1246 -19 c18 -18 33 -41 33 -53 0 -11 -32 -72 -72 -135 -112 -181 -152 -274
-234 -549 l-28 -95 -18 62 -19 61 29 58 c16 32 48 115 71 185 33 100 53 142
92 194 62 85 107 163 115 200 4 23 0 34 -22 54 l-27 25 23 -33 24 -32 -31 -63
c-17 -34 -52 -91 -78 -127 -41 -54 -49 -61 -55 -45 -6 16 -8 15 -14 -10 -7
-32 -56 -171 -112 -319 -26 -71 -31 -93 -22 -109 19 -35 13 -137 -12 -232 -13
-49 -25 -92 -27 -95 -3 -2 -26 19 -53 48 -55 59 -43 58 -159 17 -35 -13 -70
-21 -79 -18 -9 4 -13 2 -9 -4 4 -6 0 -14 -9 -17 -24 -9 -42 -6 -19 4 17 7 17
9 3 9 -10 1 -18 4 -18 8 0 4 25 61 56 127 31 67 63 135 70 151 8 17 32 50 54
75 38 44 39 44 40 18 0 -21 11 -36 45 -60 24 -18 44 -39 45 -46 0 -7 -11 -54
-25 -104 -14 -49 -24 -95 -22 -102 4 -12 46 120 54 171 3 18 10 33 14 33 12 0
11 -13 -6 -94 -8 -38 -13 -71 -11 -74 6 -5 13 22 26 96 13 73 12 74 -60 127
l-48 35 6 88 c3 61 13 107 31 153 29 72 57 99 246 240 126 94 136 104 83 74
-27 -14 -48 -25 -48 -23 1 16 43 135 52 145 6 7 29 13 51 13 33 0 48 -7 74
-32z m1263 2 c0 -5 -5 -10 -11 -10 -5 0 -7 5 -4 10 3 6 8 10 11 10 2 0 4 -4 4
-10z m-1506 -37 c-15 -21 -49 -63 -75 -93 -25 -30 -75 -97 -109 -148 -35 -51
-71 -97 -81 -102 -15 -9 -14 0 10 57 112 266 109 262 226 304 27 10 52 18 54
19 2 0 -9 -17 -25 -37z m80 -5 c-26 -84 -34 -96 -100 -150 -156 -130 -154
-129 -78 -38 39 47 92 113 119 148 49 64 72 79 59 40z m920 -165 c31 -62 54
-113 51 -113 -5 0 -115 216 -115 227 0 12 7 -1 64 -114z m156 98 c7 -13 7 -49
1 -109 -8 -72 -17 -104 -46 -163 -36 -70 -37 -75 -26 -122 6 -27 11 -57 11
-68 0 -29 -15 -23 -17 8 -1 31 -17 44 -122 101 l-79 42 29 -67 c31 -75 36
-136 14 -193 -13 -33 -13 -30 -8 42 5 71 4 81 -26 143 -17 37 -54 106 -83 154
-62 104 -60 101 -55 101 2 0 16 -18 31 -40 27 -40 130 -128 237 -200 l58 -40
-6 34 c-4 25 4 51 33 112 38 76 39 83 39 182 0 56 1 102 2 102 1 0 7 -9 13
-19z m-28 -62 c-1 -22 -3 -44 -6 -47 -3 -3 -6 19 -6 48 0 29 3 51 6 47 4 -3 6
-25 6 -48z m-878 -55 c-9 -27 -38 -92 -64 -144 -67 -134 -80 -184 -80 -312 0
-59 2 -108 4 -108 2 0 29 11 60 25 31 14 56 21 56 16 0 -4 -30 -21 -66 -36
-50 -21 -68 -25 -77 -16 -8 8 -12 49 -11 119 0 96 4 118 35 207 29 83 147 310
157 300 1 -1 -5 -24 -14 -51z m843 -6 c-2 -13 -4 -3 -4 22 0 25 2 35 4 23 2
-13 2 -33 0 -45z m-357 -333 c11 -55 22 -111 25 -125 3 -14 -2 -7 -11 15 -26
67 -64 274 -69 380 l-5 100 20 -135 c10 -74 28 -180 40 -235z m2238 283 c3
-46 2 -48 -22 -48 -24 0 -26 3 -26 51 0 47 2 50 23 47 19 -3 22 -10 25 -50z
m-1851 0 c-3 -8 -6 -5 -6 6 -1 11 2 17 5 13 3 -3 4 -12 1 -19z m1853 -119 c0
-46 -2 -49 -25 -49 -24 0 -25 3 -25 54 0 51 1 53 25 48 23 -4 25 -9 25 -53z
m58 41 c14 0 16 -9 13 -51 -3 -48 -4 -50 -30 -47 -24 3 -26 7 -29 57 -3 46 -1
53 13 47 9 -3 24 -6 33 -6z m72 -143 l0 -70 -72 7 c-107 10 -108 11 -108 60
l0 43 48 -8 c90 -15 92 -14 92 33 0 40 0 41 20 23 16 -15 20 -31 20 -88z
m-3360 42 c-6 -18 -10 -53 -10 -75 0 -36 -7 -49 -45 -91 -52 -56 -57 -43 -17
42 16 33 35 78 42 100 21 67 48 89 30 24z m-50 -36 c-7 -21 -16 -42 -21 -48
-5 -5 -3 13 6 40 8 28 15 52 15 54 0 2 3 2 6 -2 3 -3 1 -23 -6 -44z m3492 6
c29 -6 56 -17 60 -23 10 -15 10 -74 1 -79 -5 -3 -34 0 -65 6 l-58 10 0 49 c0
26 2 48 5 48 2 0 28 -5 57 -11z m-1447 -133 c39 -89 37 -104 -4 -26 -42 79
-48 95 -30 84 6 -3 21 -30 34 -58z m-1235 24 c-21 -30 -187 -160 -204 -160 -6
0 21 24 59 53 39 28 90 71 115 94 25 24 46 43 48 43 2 0 -6 -13 -18 -30z
m2535 15 c100 -12 95 -8 95 -75 0 -34 -4 -60 -10 -60 -18 0 -205 31 -208 35
-2 2 0 29 3 60 l8 57 31 -6 c17 -3 54 -8 81 -11z m-1925 -52 c0 -6 -111 -57
-155 -71 -32 -11 49 41 90 57 56 22 65 24 65 14z m59 -35 c0 -7 -4 -22 -9 -33
-7 -17 -9 -15 -9 13 -1 17 4 32 9 32 6 0 10 -6 9 -12z m71 -8 c22 -11 40 -22
40 -25 0 -4 -91 34 -99 41 -13 12 26 1 59 -16z m475 11 c3 -5 -7 -11 -22 -14
l-28 -4 31 -7 c33 -8 62 -54 68 -108 3 -25 1 -26 -65 -31 -101 -9 -131 -1
-157 39 l-22 34 24 0 c13 0 44 -3 70 -6 37 -6 44 -9 35 -20 -9 -12 -2 -14 45
-14 31 0 56 2 56 6 0 15 -84 39 -154 44 -44 3 -81 10 -83 15 -1 6 36 24 85 42
97 35 108 37 117 24z m-1241 -36 c-17 -25 -123 -120 -135 -120 -4 0 -11 -4
-16 -9 -5 -5 -3 -6 5 -2 25 15 11 -3 -25 -30 -37 -26 -37 -27 -18 -3 11 14 2
7 -19 -15 -22 -23 -33 -32 -25 -22 14 19 13 19 -12 3 -35 -23 -72 -75 -65 -93
8 -20 49 -34 101 -34 24 0 47 -5 51 -11 5 -9 -24 -11 -112 -7 -111 5 -174 19
-174 40 0 25 100 111 217 187 209 137 228 148 235 144 4 -2 1 -15 -8 -28z
m620 4 c-27 -18 -78 -52 -114 -76 -49 -34 -56 -37 -26 -11 59 50 159 117 175
118 8 0 -7 -14 -35 -31z m281 -15 c13 -8 26 -23 30 -32 4 -12 0 -11 -17 5 -13
12 -34 26 -48 32 -18 7 -20 10 -7 10 10 1 28 -6 42 -15z m89 -26 c33 -32 62
-89 37 -74 -6 4 -11 13 -11 21 0 7 -19 30 -42 49 -23 20 -36 36 -30 36 7 0 28
-15 46 -32z m344 20 c14 -14 16 -28 2 -28 -5 0 -14 9 -20 20 -12 22 -1 27 18
8z m1225 0 l97 -12 0 -59 0 -60 -102 8 c-59 4 -106 12 -111 18 -4 7 -6 23 -5
37 2 20 8 25 28 23 l25 -3 -27 21 c-30 22 -36 39 -15 39 6 0 56 -5 110 -12z
m-2437 -60 c6 -21 9 -19 46 23 l40 44 -33 -47 c-18 -27 -35 -48 -38 -48 -9 0
-81 73 -81 83 0 16 59 -33 66 -55z m-316 27 c0 -19 -20 -29 -32 -17 -15 15 -2
43 17 36 8 -3 15 -12 15 -19z m1097 -17 c-3 -8 -6 -5 -6 6 -1 11 2 17 5 13 3
-3 4 -12 1 -19z m457 -34 c4 -11 1 -14 -11 -12 -10 2 -19 11 -21 21 -4 21 24
13 32 -9z m-1669 -15 c4 -6 -1 -17 -11 -24 -39 -29 -235 -137 -240 -132 -5 5
4 67 9 67 1 0 52 22 112 50 122 55 121 54 130 39z m389 -86 c-19 -42 -33 -82
-30 -90 3 -8 1 -11 -4 -8 -6 3 -10 13 -10 21 0 15 67 154 75 154 2 0 -12 -34
-31 -77z m146 56 c0 -5 -4 -9 -10 -9 -5 0 -10 7 -10 16 0 8 5 12 10 9 6 -3 10
-10 10 -16z m670 1 c-8 -5 -21 -10 -29 -10 -54 0 -331 -170 -405 -249 -25 -26
-37 -31 -78 -31 -45 0 -49 2 -65 35 -9 19 -20 35 -24 35 -4 0 -16 -20 -28 -45
-22 -47 -37 -62 -22 -21 5 12 19 41 30 62 12 21 21 47 21 57 0 38 31 79 76 98
64 29 232 59 359 65 60 3 112 7 114 10 2 2 18 4 35 4 24 0 27 -3 16 -10z m685
0 c3 -6 -36 -11 -102 -13 l-108 -3 117 -2 c65 -1 120 -6 123 -12 4 -7 -60 -10
-184 -10 -104 0 -192 4 -195 8 -11 18 12 31 59 35 108 8 284 7 290 -3z m-530
-35 c91 -11 164 -38 193 -70 l27 -30 -31 28 c-26 23 -54 35 -54 23 0 -2 17
-33 38 -67 77 -127 122 -288 122 -428 -1 -119 -43 -188 -160 -265 -66 -44 -94
-70 -50 -46 11 6 20 9 20 6 0 -10 -106 -175 -154 -240 -28 -38 -67 -99 -87
-135 -20 -38 -50 -76 -68 -88 -42 -29 -190 -87 -216 -85 -20 2 -98 -28 -92
-35 2 -2 20 4 40 12 46 19 46 19 40 -5 -3 -11 -1 -20 4 -20 25 0 125 36 185
66 37 19 70 34 73 34 11 0 -27 -76 -50 -100 -13 -14 -47 -34 -76 -45 -28 -11
-53 -23 -55 -27 -4 -6 49 -51 121 -102 l27 -18 -23 -24 c-28 -30 -62 -34 -34
-4 17 19 17 20 -31 41 -27 11 -71 30 -99 41 -139 54 -179 79 -230 140 -80 98
-80 98 -38 154 20 27 52 66 70 87 l33 37 0 113 c0 183 30 283 120 396 54 68
121 101 204 101 l59 0 -34 23 c-19 13 -34 31 -34 42 0 34 132 67 290 73 l130
6 -100 16 c-85 14 -106 14 -139 3 -52 -18 -59 -8 -10 14 40 19 148 95 159 113
12 20 -21 9 -75 -25 -30 -19 -60 -35 -66 -35 -18 0 -74 -50 -95 -85 -11 -16
-19 -24 -19 -17 0 22 51 96 109 156 49 51 52 56 23 40 -44 -25 -145 -132 -161
-172 -13 -32 -41 -51 -41 -28 0 29 32 101 66 150 l35 51 -52 -55 c-54 -57 -99
-138 -99 -179 0 -14 9 -35 21 -47 l20 -22 -92 -18 c-103 -21 -149 -51 -149
-98 0 -14 -8 -34 -19 -45 -19 -19 -171 -73 -316 -111 -44 -12 -88 -24 -97 -26
-15 -5 -18 2 -18 43 0 26 -9 66 -19 89 -24 53 -79 77 -168 75 l-63 -2 10 26
c25 65 28 68 83 62 56 -5 226 11 242 23 6 4 66 27 135 50 69 23 136 49 150 57
16 9 18 12 5 7 -11 -3 -78 -26 -150 -50 l-130 -43 -6 72 -5 72 -2 -73 c-1 -48
-6 -74 -14 -76 -56 -18 -68 -16 -69 6 -1 22 -1 22 -8 -2 -6 -23 -13 -25 -65
-28 l-59 -3 5 49 c5 49 51 160 83 197 l17 20 -7 -20 c-20 -55 -20 -61 -1 -45
10 8 38 41 63 73 42 54 121 123 130 113 2 -2 -10 -31 -27 -63 -31 -58 -31 -61
-16 -97 13 -31 19 -36 48 -36 18 0 87 15 154 33 115 32 122 35 164 82 72 78
120 121 179 156 64 39 177 80 206 74 11 -2 43 -7 70 -10z m805 -22 c3 -3 5
-56 5 -119 0 -107 1 -115 20 -119 11 -2 130 -11 265 -20 135 -9 251 -18 258
-20 18 -6 18 -588 -1 -604 -10 -7 -116 -8 -383 -1 -635 16 -824 23 -824 30 0
3 32 34 70 69 95 84 122 139 128 251 2 53 -2 111 -12 155 -13 61 -13 72 0 86
7 8 17 37 20 63 5 34 14 52 33 66 47 36 51 41 51 66 0 21 11 30 75 61 41 19
78 40 81 45 6 10 203 1 214 -9z m-1580 3 c0 -7 -82 -86 -90 -86 -5 0 -6 9 -3
21 7 24 93 85 93 65z m1230 -28 c-19 -11 -53 -33 -75 -48 -73 -50 -107 -64
-116 -48 -13 20 -11 28 9 34 9 3 28 11 42 17 67 29 156 65 165 66 6 0 -6 -9
-25 -21z m-1487 -88 c31 -17 57 -36 57 -41 0 -12 0 -12 -61 15 -30 13 -79 31
-109 41 -71 23 -77 28 -56 59 l16 26 48 -34 c26 -18 73 -48 105 -66z m1337 81
c-26 -15 -80 -23 -80 -12 0 8 24 14 80 19 13 1 13 0 0 -7z m1141 -1 l29 0 0
-146 c0 -128 -2 -148 -17 -160 -17 -13 -17 -13 0 -14 13 0 17 -6 15 -22 -2
-18 -10 -24 -39 -26 l-36 -3 -5 84 c-3 46 -6 132 -7 191 -2 97 0 108 14 102 9
-3 30 -6 46 -6z m-1039 -82 c-15 -15 -24 -6 -16 16 5 12 10 14 17 7 8 -8 8
-14 -1 -23z m-52 -24 c0 -23 -24 -44 -50 -44 -41 0 -39 27 3 39 40 12 47 12
47 5z m-1475 -48 l40 -12 -75 -48 c-41 -27 -122 -86 -180 -131 -58 -45 -127
-95 -155 -110 -62 -35 -51 -23 41 43 40 28 107 79 150 114 44 35 103 79 133
98 l54 34 -34 9 c-56 15 -168 3 -219 -23 -25 -12 -87 -54 -138 -93 -51 -38
-95 -68 -98 -64 -10 10 15 44 65 89 46 42 104 69 201 96 49 14 167 13 215 -2z
m1445 -30 c0 -21 -21 -31 -31 -15 -14 22 -11 29 11 29 11 0 20 -6 20 -14z
m-1332 -43 c-38 -44 -81 -160 -80 -215 1 -24 -3 -28 -26 -28 -39 0 -69 -25
-77 -63 -9 -39 -19 -47 -69 -47 -26 0 -37 4 -33 13 2 6 19 48 36 92 29 76 118
205 141 205 14 0 14 1 -20 -78 -45 -106 -36 -119 15 -22 25 47 61 102 81 123
36 37 60 52 32 20z m1332 -2 c0 -6 -4 -13 -10 -16 -5 -3 -10 1 -10 9 0 9 5 16
10 16 6 0 10 -4 10 -9z m-2020 -96 c0 -50 -10 -56 -49 -28 l-24 17 33 28 c19
15 36 28 37 28 2 0 3 -20 3 -45z m3368 -5 l42 0 0 -50 0 -50 -47 0 c-27 0 -99
3 -160 7 -101 5 -113 8 -113 25 0 14 8 18 41 18 36 0 41 3 51 31 l11 32 66 -7
c36 -3 85 -6 109 -6z m-2968 -174 l-32 -76 -81 0 c-44 0 -78 2 -76 4 16 17
214 154 217 152 2 -2 -11 -38 -28 -80z m-378 -6 l34 -70 -28 0 c-33 0 -44 19
-54 88 -9 73 8 67 48 -18z m3307 64 c29 -6 31 -9 31 -52 l0 -45 -46 7 c-26 3
-87 6 -135 6 l-89 0 0 45 0 45 104 0 c57 0 118 -3 135 -6z m24 -118 c4 -6 6
-20 5 -31 -3 -19 -12 -20 -135 -23 l-133 -3 0 40 0 39 128 -5 c76 -4 130 -10
135 -17z m-2103 10 c0 -2 -8 -10 -17 -17 -16 -13 -17 -12 -4 4 13 16 21 21 21
13z m-623 -64 c7 -1 19 -15 28 -32 13 -25 14 -54 6 -202 l-10 -173 4 179 c3
175 2 180 -20 202 l-23 23 -354 -6 c-210 -3 -361 -10 -373 -16 -18 -9 -18 -8
-7 6 8 9 23 17 35 19 23 3 694 3 714 0z m-15 -34 c14 -11 17 -67 22 -425 5
-286 3 -419 -4 -433 -13 -24 -52 -45 -102 -54 -43 -8 -37 -22 -63 145 -11 66
-15 126 -11 160 24 200 18 239 -41 267 -21 9 -47 28 -59 42 -21 24 -24 24
-150 21 -71 -1 -135 -7 -141 -13 -9 -7 -13 -44 -13 -115 0 -99 2 -110 40 -204
55 -137 59 -159 70 -369 13 -278 40 -383 137 -543 54 -89 87 -157 79 -164 -2
-2 -32 1 -67 7 -35 6 -106 14 -158 18 -107 8 -107 8 -116 95 -4 39 -14 66 -30
85 -22 26 -23 38 -29 227 -13 381 -27 588 -52 764 -32 220 -43 453 -23 477 12
14 30 16 129 11 63 -2 189 -2 280 2 267 12 285 12 302 -1z m2796 -3 c5 -5 12
-29 15 -52 l5 -43 -169 0 -169 0 0 56 0 56 155 -3 c85 -2 158 -8 163 -14z
m-3507 -480 c30 -208 50 -542 47 -805 l-1 -95 -7 110 c-4 61 -10 193 -14 295
-3 116 -13 228 -26 300 -29 164 -50 396 -48 535 l1 120 8 -125 c5 -69 23 -219
40 -335z m1233 365 c-12 -12 -154 -54 -160 -47 -4 4 142 56 161 57 5 0 5 -4
-1 -10z m-20 -118 c-7 -46 -17 -47 -33 -2 -9 28 -8 32 12 39 12 5 23 8 25 6 1
-1 0 -21 -4 -43z m961 8 c0 -12 -19 -16 -90 -20 l-90 -6 102 -4 102 -5 5 28 6
27 102 0 c57 0 109 -4 117 -9 11 -7 12 -59 10 -274 -3 -160 -8 -270 -14 -275
-5 -5 -167 -19 -360 -31 -192 -12 -376 -23 -407 -26 -51 -4 -59 -2 -69 16 -9
18 -6 26 25 58 26 27 44 61 69 137 25 77 47 120 94 185 33 46 77 115 98 152
l37 68 132 -3 c108 -3 131 -6 131 -18z m-1263 1 c-8 -5 -16 -34 -18 -72 -9
-127 -22 -142 -23 -26 l-1 107 28 0 c18 0 23 -3 14 -9z m2498 -35 c0 -36 -12
-46 -55 -46 -29 0 -35 8 -28 42 4 21 12 28 37 31 17 2 34 5 39 5 4 1 7 -13 7
-32z m-100 -16 c0 -33 -4 -42 -22 -49 -13 -5 -26 -7 -30 -4 -5 2 -8 -1 -8 -8
0 -7 11 -9 35 -5 28 6 35 4 35 -9 0 -8 4 -15 9 -15 5 0 7 8 4 18 -3 14 5 20
36 28 l41 11 0 -53 0 -54 -109 0 -108 0 -2 80 c-1 44 1 85 4 90 3 6 31 10 61
10 l54 0 0 -40z m-2885 -30 c4 -7 -39 -9 -122 -8 l-128 2 110 6 c61 3 115 7
122 8 6 1 15 -2 18 -8z m785 -68 c0 -44 -5 -75 -15 -88 -17 -23 -16 -27 -18
69 -2 70 2 84 26 86 4 1 7 -30 7 -67z m-762 32 c19 -6 22 -11 17 -35 -4 -16
-1 -38 6 -51 23 -41 27 -128 12 -233 -8 -55 -16 -140 -17 -190 l-1 -90 96 2
96 1 -7 -36 c-5 -20 -13 -62 -20 -93 -12 -62 -68 -186 -106 -237 -31 -40 -48
-33 -93 36 -61 95 -110 233 -126 350 -14 109 -41 199 -97 320 -25 55 -32 84
-36 159 l-4 92 83 4 c46 1 104 4 129 5 25 1 55 -1 68 -4z m92 -44 c0 -5 -7 -7
-15 -4 -8 4 -15 8 -15 10 0 2 7 4 15 4 8 0 15 -4 15 -10z m-48 -29 c2 -17 1
-28 -4 -25 -8 5 -12 54 -4 54 2 0 6 -13 8 -29z m50 0 c8 11 9 11 5 -1 -2 -8
-11 -16 -20 -18 -13 -3 -15 1 -10 14 5 13 8 14 11 5 4 -11 6 -11 14 0z m6 -78
c-2 -29 -8 -39 -23 -42 -20 -3 -20 -3 -1 18 15 16 17 24 8 33 -17 17 -15 28 4
28 12 0 14 -9 12 -37z m301 -210 c-1 -131 -4 -193 -9 -168 -7 37 -1 375 7 375
1 0 2 -93 2 -207z m-317 80 c-3 -43 -8 -63 -17 -63 -12 0 -12 56 1 119 9 44
20 7 16 -56z m2978 -105 c0 -57 -3 -126 -6 -154 l-6 -50 -307 -23 c-168 -13
-363 -28 -433 -35 l-128 -11 0 92 0 93 38 0 c20 0 102 5 182 10 80 6 190 13
245 16 112 6 272 22 295 29 8 2 -33 2 -92 -1 -87 -5 -108 -3 -108 8 0 7 -9 19
-21 26 -15 10 -19 21 -17 50 l3 37 90 6 c50 3 129 6 178 7 l87 2 0 -102z
m-370 38 c0 -25 5 -48 12 -52 7 -5 8 -3 3 6 -5 9 -4 11 3 6 28 -17 11 -35 -40
-40 -83 -9 -365 -26 -430 -26 l-58 0 0 34 c0 19 4 37 9 40 5 3 64 10 132 16
175 14 189 17 189 40 0 18 7 20 90 20 l90 0 0 -44z m-2599 -71 c6 27 7 25 7
-15 0 -25 3 -66 7 -91 7 -51 -1 -61 -48 -52 -27 5 -27 6 -26 92 0 96 17 87 18
-11 2 -99 21 -78 23 24 0 51 3 77 6 58 l5 -35 8 30z m631 -42 c43 -42 47 -54
17 -46 -19 5 -20 4 -8 -15 18 -29 26 -31 148 -43 58 -6 120 -14 136 -18 29 -8
28 -8 -19 -16 -27 -4 -83 -5 -125 -3 -74 5 -75 5 -40 -9 35 -14 59 -46 59 -79
0 -12 -10 -8 -37 13 -21 16 -63 45 -93 64 -72 45 -118 85 -136 121 -14 27 -14
30 8 48 33 28 47 25 90 -17z m377 -22 c-3 -6 -10 -7 -18 -2 -7 5 -10 14 -6 21
9 14 29 -2 24 -19z m-292 -195 c51 -25 96 -46 99 -46 4 0 4 18 0 39 l-6 39 35
-8 c18 -4 35 -7 37 -5 2 1 15 5 29 8 23 6 26 4 22 -17 -3 -16 -14 -27 -32 -31
-14 -3 -56 -20 -93 -37 l-68 -31 -47 18 c-56 21 -168 97 -177 120 -3 9 2 27
11 39 l18 23 40 -32 c22 -18 82 -53 132 -79z m-400 82 c-3 -8 -6 -5 -6 6 -1
11 2 17 5 13 3 -3 4 -12 1 -19z m-12 -103 c5 -28 5 -28 -5 -6 -6 14 -26 40
-45 58 -19 19 -35 39 -35 46 0 23 79 -68 85 -98z m260 -36 c-3 -4 -12 -6 -20
-3 -8 4 -13 10 -10 15 3 4 12 6 20 3 8 -4 13 -10 10 -15z m-356 -137 l-22 -83
33 -87 c41 -105 52 -208 26 -247 -9 -14 -22 -25 -29 -25 -9 0 -9 2 1 9 9 5 12
25 10 57 -3 42 -6 49 -25 52 -27 4 -85 -25 -149 -75 -56 -44 -74 -56 -74 -49
0 3 45 44 100 91 l100 86 -16 31 c-21 40 -15 92 25 222 17 54 32 113 32 130
l2 31 4 -30 c3 -16 -5 -67 -18 -113z m108 116 c-3 -8 -6 -5 -6 6 -1 11 2 17 5
13 3 -3 4 -12 1 -19z m623 -21 c0 -26 -47 -41 -66 -22 -9 8 -20 15 -25 15 -6
0 -5 8 1 20 15 29 28 25 38 -12 l9 -33 8 30 c4 17 10 34 13 39 6 11 22 -14 22
-37z m-1501 -105 c6 -57 11 -141 11 -187 0 -74 -3 -87 -22 -105 -25 -23 -44
-26 -51 -7 -3 6 -6 2 -6 -10 -2 -41 35 -39 83 5 45 42 83 60 96 45 4 -4 10
-24 14 -44 l6 -37 -67 -6 c-38 -3 -85 -8 -105 -12 -34 -6 -38 -4 -44 22 -4 16
4 99 19 198 15 94 30 196 33 225 9 72 18 47 33 -87z m1061 124 c0 -8 -9 -17
-20 -21 -12 -4 -24 -22 -31 -46 -11 -34 -10 -41 6 -59 31 -34 107 -80 132 -80
24 0 89 28 237 101 77 38 100 41 94 12 -3 -15 -89 -53 -120 -53 -10 0 -59 -18
-108 -41 -65 -29 -98 -39 -118 -34 -40 8 -142 94 -142 119 0 56 14 98 34 106
30 12 36 12 36 -4z m115 -35 c17 -12 42 -21 58 -21 22 0 27 -4 27 -24 0 -18
-11 -31 -44 -50 -25 -14 -56 -26 -70 -26 -26 0 -86 52 -86 75 0 22 15 26 36
10 21 -16 54 -20 54 -7 0 5 -13 18 -30 30 -16 13 -30 32 -30 43 0 18 2 19 28
5 15 -8 41 -24 57 -35z m203 25 c-16 -11 -14 -14 20 -30 l37 -18 -59 -24 c-33
-13 -62 -21 -65 -18 -8 8 30 35 40 28 5 -3 9 -1 9 5 0 21 -21 21 -50 1 -21
-15 -30 -17 -30 -8 0 21 13 34 55 56 45 24 69 28 43 8z m-491 -28 c-3 -8 -6
-5 -6 6 -1 11 2 17 5 13 3 -3 4 -12 1 -19z m643 -15 c-1 -5 -7 -19 -14 -32
l-13 -23 -6 23 c-4 14 -1 26 6 31 15 10 27 10 27 1z m-612 -178 c-1 -49 -1
-48 -8 15 -5 36 -11 88 -14 115 -5 43 -4 41 9 -15 7 -36 13 -87 13 -115z m672
105 c10 -6 11 -12 5 -18 -15 -14 -145 -82 -145 -77 0 13 38 74 43 69 3 -4 18
3 33 15 29 23 42 25 64 11z m-122 -22 c-8 -13 -20 -33 -27 -46 l-12 -23 -21
26 c-23 30 -24 29 22 49 48 21 55 20 38 -6z m140 -62 c-3 -50 -18 -52 -18 -2
0 29 6 46 17 46 2 0 2 -20 1 -44z m-59 8 c-31 -34 -116 -77 -132 -67 -16 10
19 -45 51 -80 25 -26 30 -27 87 -21 48 5 66 12 92 36 26 25 36 29 57 22 l26
-9 -45 -41 c-25 -23 -48 -37 -52 -31 -3 6 -33 7 -73 3 l-68 -6 -64 58 c-35 32
-81 68 -101 81 -21 13 -35 26 -32 29 3 3 11 0 17 -6 17 -17 55 -15 66 4 8 14
10 14 25 -1 10 -9 17 -13 17 -9 0 5 5 3 11 -3 12 -12 59 3 59 18 0 7 66 47 79
49 3 0 -6 -12 -20 -26z m-379 -152 c-6 -2 -25 1 -42 7 -41 14 -81 14 -96 -1
-9 -9 -15 -9 -24 0 -9 9 -7 26 5 72 10 34 14 67 11 73 -4 7 30 -24 75 -68 45
-44 77 -81 71 -83z m408 136 c-1 -7 1 -25 5 -40 l7 -27 47 14 c43 13 48 13 75
-6 38 -27 35 -32 -5 -13 -33 16 -35 15 -59 -9 -23 -23 -29 -25 -66 -15 -42 10
-91 52 -78 65 4 4 12 0 17 -10 11 -19 39 -24 39 -6 0 5 -4 7 -10 4 -16 -10
-11 17 7 37 19 21 25 23 21 6z m72 -19 c0 -5 -7 -9 -15 -9 -8 0 -15 7 -15 15
0 9 6 12 15 9 8 -4 15 -10 15 -15z m-275 -128 c133 -88 207 -121 266 -121 15
0 31 -4 34 -10 8 -13 8 -13 -83 6 -56 11 -99 28 -157 63 -44 26 -101 60 -126
74 -48 27 -99 79 -99 100 0 7 6 5 13 -4 7 -9 75 -58 152 -108z m-496 -56 c0
-48 3 -90 6 -95 3 -4 -5 -10 -17 -13 -20 -6 -21 -4 -14 61 3 37 6 84 6 105 0
21 4 36 9 33 4 -3 9 -44 10 -91z m161 0 c17 -9 72 -25 123 -35 90 -19 93 -21
139 -72 26 -29 48 -56 48 -60 0 -5 -22 -8 -48 -8 -36 0 -54 5 -67 20 -10 11
-36 22 -64 25 -25 3 -56 8 -68 11 -19 4 -23 0 -23 -21 0 -20 -5 -25 -26 -25
-40 0 -114 41 -130 72 -23 45 -16 50 31 22 64 -37 67 -24 4 16 l-51 33 7 46
c4 25 9 50 12 54 2 4 22 -8 43 -27 21 -19 53 -42 70 -51z m931 40 c31 -16 54
-58 45 -82 -4 -10 -38 -13 -141 -13 l-136 0 -40 32 c-45 36 -37 51 21 42 23
-4 57 2 95 15 72 25 116 26 156 6z m17 -127 c-8 -24 -75 -48 -152 -54 -49 -5
-74 -10 -67 -17 12 -12 162 8 200 28 16 8 32 24 36 35 3 11 11 20 16 20 12 0
11 -4 -2 -33 -21 -45 -64 -61 -184 -64 l-110 -4 -28 38 c-15 21 -24 39 -20 40
16 6 189 20 251 22 47 1 63 -2 60 -11z m-441 -28 c31 0 31 -1 20 -30 l-11 -30
-95 0 -95 0 38 39 c35 36 40 38 74 30 20 -5 51 -9 69 -9z m-622 -20 c21 -23
28 -19 -97 -49 -84 -20 -148 -27 -136 -15 9 8 191 83 204 84 6 0 19 -9 29 -20z
m742 -2 c13 -12 23 -25 23 -30 0 -4 -25 -8 -55 -8 -59 0 -70 13 -39 44 21 22
43 20 71 -6z m-464 -27 c8 -8 -3 -11 -41 -11 -44 0 -52 3 -52 19 0 16 5 17 41
11 22 -4 46 -13 52 -19z"/>
<path d="M2799 4431 c-16 -16 -29 -35 -29 -43 1 -7 7 -1 16 14 31 58 106 67
148 17 14 -17 26 -38 27 -47 0 -10 3 -12 5 -5 7 17 -23 70 -45 83 -39 20 -91
12 -122 -19z"/>
<path d="M2761 4349 c0 -13 4 -33 9 -44 7 -14 8 -8 3 20 -7 46 -13 59 -12 24z"/>
<path d="M2962 4308 c-5 -23 -18 -38 -42 -50 -19 -10 -27 -18 -18 -18 25 0 65
41 72 73 9 38 -2 34 -12 -5z"/>
<path d="M2325 4236 c-55 -18 -142 -63 -165 -86 -25 -25 -26 -76 -2 -89 15 -8
31 -1 78 31 51 35 174 98 239 123 18 6 16 9 -15 20 -44 17 -84 17 -135 1z"/>
<path d="M1702 3565 c-10 -40 -24 -60 -70 -103 -50 -47 -44 -46 30 7 19 14 19
13 12 -25 -3 -21 -4 -37 -1 -34 11 11 48 162 45 183 -2 15 -7 6 -16 -28z"/>
<path d="M1622 3527 c-58 -59 -72 -89 -17 -36 34 32 80 89 73 89 -2 0 -27 -24
-56 -53z"/>
<path d="M1435 3093 c-3 -43 -9 -89 -11 -103 -5 -21 -4 -23 6 -8 11 18 27 188
18 188 -3 0 -9 -35 -13 -77z"/>
<path d="M2970 3051 c-22 -11 -68 -20 -120 -24 -47 -3 -105 -13 -130 -22 -62
-22 -136 -72 -162 -109 -20 -27 -16 -26 27 13 83 73 190 111 313 111 37 0 122
31 122 45 0 9 -14 5 -50 -14z"/>
<path d="M3188 3003 c7 -3 16 -2 19 1 4 3 -2 6 -13 5 -11 0 -14 -3 -6 -6z"/>
<path d="M2898 2803 c7 -3 16 -2 19 1 4 3 -2 6 -13 5 -11 0 -14 -3 -6 -6z"/>
<path d="M3360 2700 c-30 -10 -50 -18 -43 -19 13 -1 136 29 142 35 11 10 -50
1 -99 -16z"/>
<path d="M3192 2573 c-36 -7 -15 -23 31 -23 68 0 147 12 141 21 -5 9 -129 10
-172 2z"/>
<path d="M3366 2355 c-100 -43 -123 -65 -34 -31 61 22 118 53 118 62 0 5 6 8
-84 -31z"/>
<path d="M3131 2313 c-35 -68 -70 -173 -120 -369 -10 -37 -18 -46 -89 -87 -80
-46 -110 -72 -98 -85 7 -6 133 54 169 82 12 9 25 46 37 108 19 90 55 207 99
316 20 50 22 71 2 35z"/>
<path d="M3256 2275 c-9 -26 -7 -32 5 -12 6 10 9 21 6 23 -2 3 -7 -2 -11 -11z"/>
<path d="M3200 2115 c-45 -136 -68 -171 -137 -211 -24 -15 -42 -29 -39 -31 8
-8 88 42 115 71 22 23 116 284 107 294 -2 2 -23 -53 -46 -123z"/>
<path d="M3050 1831 c-41 -16 -102 -41 -135 -56 -33 -16 -98 -41 -145 -56 -47
-16 -69 -26 -50 -23 81 13 430 142 430 158 0 11 -25 5 -100 -23z"/>
<path d="M1411 5116 c9 -9 147 -35 154 -28 11 11 4 32 -11 32 -9 0 -12 -5 -8
-11 5 -9 -1 -10 -20 -5 -44 11 -121 19 -115 12z"/>
<path d="M1611 5116 c14 -12 888 -198 899 -191 11 7 13 116 4 164 -12 59 -24
31 -24 -58 l0 -88 -45 10 -45 10 -2 81 -2 81 -3 -73 c-3 -47 -8 -75 -17 -78
-14 -5 -184 31 -475 102 -104 25 -208 44 -239 44 -30 0 -53 -2 -51 -4z"/>
<path d="M4410 4955 c0 -110 -4 -165 -11 -165 -5 0 -79 20 -162 44 -190 54
-207 58 -207 49 0 -5 94 -34 208 -67 114 -32 261 -74 327 -93 l120 -35 -5
-233 c-3 -129 -9 -237 -13 -241 -4 -4 -8 71 -9 167 -1 96 -3 153 -5 127 -3
-29 -9 -48 -16 -47 -7 0 -56 15 -109 32 -54 18 -98 30 -98 26 0 -4 9 -11 20
-14 17 -5 20 -15 20 -62 0 -61 4 -59 -75 -36 -13 3 -17 2 -10 -5 9 -9 119 -45
223 -72 l42 -11 0 -53 0 -53 -132 34 c-72 19 -139 32 -147 30 -9 -1 17 -11 57
-21 l72 -18 0 -59 c0 -68 4 -67 -105 -41 l-70 17 -3 253 c-1 138 1 252 5 252
5 0 75 -18 157 -40 83 -22 152 -38 154 -35 2 2 -22 11 -54 20 -33 9 -106 30
-163 47 -84 24 -106 27 -112 16 -12 -19 -11 -575 1 -597 5 -11 26 -22 47 -25
21 -4 62 -11 91 -17 l52 -10 0 -45 c0 -28 4 -43 10 -39 6 3 10 22 10 42 0 31
2 35 23 31 158 -34 329 -67 357 -70 30 -3 35 0 38 20 7 45 22 20 22 -35 0 -32
5 -65 11 -73 8 -11 9 4 4 54 l-6 69 38 -6 c21 -3 55 -9 76 -13 22 -4 37 -3 37
3 0 11 -95 33 -142 33 -26 0 -28 3 -28 39 l0 38 85 -17 c47 -10 85 -14 85 -10
0 8 -40 18 -132 35 l-38 7 0 80 c0 71 2 79 18 74 9 -3 40 -10 67 -16 28 -6 58
-13 68 -16 9 -3 17 -1 17 4 0 5 -21 15 -47 21 -135 33 -123 25 -123 86 l0 54
86 -24 c53 -15 84 -19 81 -12 -2 6 -41 21 -87 32 -73 18 -85 24 -91 45 -7 24
-7 24 -8 3 -1 -28 8 -28 -126 5 l-110 27 -3 53 c-2 28 1 52 5 52 14 0 195 -50
288 -79 50 -16 100 -32 113 -36 12 -3 22 -2 22 3 0 5 -15 13 -32 18 -32 9 -33
12 -36 66 l-3 57 32 -9 c30 -9 49 -6 38 5 -3 2 -38 15 -79 27 l-75 24 -3 57
c-3 66 -4 66 82 37 33 -11 64 -20 69 -20 23 0 -8 15 -71 35 l-67 21 -3 87 -3
88 28 -7 c15 -4 45 -13 67 -21 55 -19 56 -18 54 35 -1 43 -2 44 -5 10 -2 -21
-8 -38 -13 -38 -4 0 -35 8 -69 19 -46 14 -63 16 -70 7 -6 -7 -11 -48 -13 -93
l-3 -81 -55 17 -55 17 -5 164 -6 165 -3 -165 c-2 -124 -5 -159 -13 -140 -5 14
-7 49 -5 77 3 29 1 55 -4 58 -5 4 -9 -1 -9 -9 0 -12 -17 -9 -90 17 l-90 32 0
38 c0 28 4 38 13 34 65 -28 171 -67 174 -63 2 2 -39 21 -91 42 -73 28 -96 42
-96 56 0 20 -16 25 -22 6 -4 -10 -10 -10 -32 0 -15 6 -35 12 -44 12 -9 -1 4
-10 31 -22 45 -20 47 -22 47 -63 l0 -42 -75 21 -75 21 0 42 c0 32 -4 43 -15
43 -13 0 -15 -25 -15 -165z m227 9 l141 -45 4 -47 c3 -26 3 -49 2 -51 -2 -2
-80 23 -174 55 l-170 58 0 44 c0 52 -17 53 197 -14z m-80 -84 c90 -32 92 -33
78 -53 -8 -12 -15 -39 -15 -60 0 -32 -3 -38 -17 -34 -10 3 -51 15 -90 26 l-73
22 0 70 c0 53 3 70 13 67 6 -3 53 -20 104 -38z m230 -81 c20 -7 23 -15 23 -64
0 -33 -4 -55 -11 -55 -28 0 -159 44 -160 54 -3 27 3 63 13 83 10 21 12 21 61
6 28 -8 61 -19 74 -24z m111 -34 l52 -16 0 -60 c0 -45 -3 -60 -12 -57 -7 3
-35 12 -63 22 l-50 16 3 55 c2 30 7 55 11 55 4 0 31 -7 59 -15z m-63 -119
l110 -33 3 -56 3 -56 -123 33 -123 32 -3 57 c-2 42 1 57 10 57 7 0 63 -15 123
-34z m198 -66 c5 -4 7 -29 5 -57 l-3 -49 -32 8 c-32 8 -33 10 -33 63 0 55 0
55 28 49 15 -4 31 -10 35 -14z m-468 -113 l80 -23 3 -56 3 -57 -78 24 c-43 14
-81 25 -85 25 -5 0 -8 25 -8 55 0 30 1 55 3 55 1 0 38 -11 82 -23z m365 -149
c0 -47 -1 -50 -22 -45 -13 3 -67 16 -120 28 l-98 22 0 53 0 52 120 -30 120
-30 0 -50z m8 -125 c3 -58 4 -57 -50 -43 -30 9 -35 14 -31 31 5 19 4 20 -16 8
-17 -11 -21 -24 -21 -65 0 -75 -8 -78 -126 -54 -54 11 -116 25 -136 31 l-38
10 0 59 c0 33 4 60 8 60 5 0 31 -6 58 -14 27 -8 61 -17 77 -20 l27 -6 0 59 0
59 123 -31 122 -32 3 -52z m-8 -116 l0 -50 -50 5 c-60 6 -65 10 -51 36 6 12
11 34 11 50 l0 29 45 -10 45 -10 0 -50z m-497 28 c71 -16 77 -19 77 -42 0 -22
-3 -24 -27 -19 -16 3 -58 11 -95 17 -66 11 -68 12 -68 41 0 23 4 28 18 24 9
-2 52 -12 95 -21z m292 -64 c88 -18 170 -34 183 -37 16 -3 22 -11 22 -29 0
-24 -2 -25 -42 -19 -24 4 -115 23 -203 43 -148 34 -160 38 -163 60 -3 20 0 23
20 19 12 -3 95 -20 183 -37z"/>
<path d="M4965 5104 c79 -30 155 -52 155 -45 0 10 -150 61 -175 60 -12 0 -5
-6 20 -15z"/>
<path d="M1658 5053 c6 -2 18 -2 25 0 6 3 1 5 -13 5 -14 0 -19 -2 -12 -5z"/>
<path d="M1708 5043 c7 -3 16 -2 19 1 4 3 -2 6 -13 5 -11 0 -14 -3 -6 -6z"/>
<path d="M1746 5033 c7 -5 13 -48 15 -110 4 -98 3 -102 -16 -98 -65 14 -248
45 -295 49 -30 3 19 -8 110 -24 91 -17 178 -34 193 -40 l28 -9 -3 117 c-3 108
-5 117 -23 120 -12 2 -16 0 -9 -5z"/>
<path d="M1353 4883 c9 -2 23 -2 30 0 6 3 -1 5 -18 5 -16 0 -22 -2 -12 -5z"/>
<path d="M4040 4645 c7 -8 28 -18 48 -21 31 -6 34 -8 17 -15 -13 -6 -6 -7 20
-3 27 4 35 2 27 -4 -11 -7 -8 -11 11 -16 14 -3 33 -3 43 1 12 4 15 3 10 -5 -5
-8 4 -12 30 -12 21 0 35 2 33 4 -4 5 -238 86 -246 86 -3 0 0 -7 7 -15z"/>
<path d="M0 4492 c0 -5 7 -12 15 -16 14 -5 255 -45 415 -69 l85 -12 0 -140 0
-140 -39 -3 c-21 -2 -135 9 -253 23 -191 24 -238 26 -222 10 9 -8 385 -56 460
-58 l74 -2 15 34 c14 32 16 33 60 28 25 -3 150 -20 279 -36 207 -27 256 -31
240 -17 -2 1 -128 20 -280 41 l-277 38 -4 141 c-5 147 -11 176 -34 176 -9 0
-14 -12 -14 -36 l0 -36 -47 6 c-39 6 -259 42 -440 73 -20 3 -33 1 -33 -5z"/>
<path d="M1190 4390 c0 -5 17 -10 38 -10 66 0 71 -10 75 -145 l3 -120 2 133 2
132 -26 10 c-33 13 -94 13 -94 0z"/>
<path d="M5 4082 c6 -6 75 -20 155 -32 205 -30 190 -17 183 -147 -3 -59 -6
-109 -7 -110 -1 -1 -75 7 -166 17 -91 10 -167 17 -170 14 -7 -8 22 -24 45 -24
11 -1 89 -9 172 -19 l153 -17 0 138 c0 135 0 138 -22 142 -13 3 -81 12 -153
21 -72 9 -146 18 -165 22 -24 4 -32 2 -25 -5z"/>
<path d="M1078 3935 l5 -115 -34 0 c-19 0 -97 7 -174 15 -265 27 -294 17 -40
-14 94 -12 191 -24 218 -27 l47 -6 0 115 c0 64 -3 122 -6 131 -15 39 -20 8
-16 -99z"/>
<path d="M495 3750 c33 -4 80 -8 105 -7 41 0 39 1 -15 7 -33 4 -80 8 -105 7
-41 0 -39 -1 15 -7z"/>
<path d="M668 3733 c7 -3 16 -2 19 1 4 3 -2 6 -13 5 -11 0 -14 -3 -6 -6z"/>
<path d="M844 3660 c3 -14 6 -55 6 -92 0 -43 4 -68 11 -68 17 0 8 156 -10 172
-11 11 -13 9 -7 -12z"/>
<path d="M0 3366 c0 -10 8 -16 23 -16 81 0 483 -44 489 -54 4 -6 8 -55 8 -110
l0 -98 -52 6 c-104 11 -354 17 -331 7 11 -5 102 -13 202 -17 l181 -7 0 -79 0
-79 -107 5 c-342 17 -413 18 -413 2 0 -12 10 -16 38 -16 20 -1 138 -5 262 -10
157 -6 228 -6 237 2 17 13 18 350 2 396 -13 37 -4 35 -264 57 -104 9 -209 18
-232 22 -35 4 -43 2 -43 -11z"/>
<path d="M4180 3197 c7 -7 259 -37 300 -36 41 2 -103 24 -221 34 -46 4 -82 5
-79 2z"/>
<path d="M624 2644 c-10 -8 -12 -12 -4 -7 8 4 107 10 220 13 l205 6 -201 2
c-169 2 -203 0 -220 -14z"/>
<path d="M70 2630 c160 -17 200 -17 188 -3 -8 10 -43 13 -137 12 -120 -2 -123
-2 -51 -9z"/>
<path d="M274 2485 c0 -60 1 -84 3 -52 2 32 2 81 0 110 -2 29 -3 3 -3 -58z"/>
<path d="M950 2553 c0 -5 44 -7 97 -5 174 4 191 8 46 10 -79 1 -143 -1 -143
-5z"/>
<path d="M672 2225 c-11 -12 -10 -15 3 -15 8 0 15 7 15 15 0 18 -2 18 -18 0z"/>
<path d="M5 2200 c-7 -11 185 -12 470 -1 169 7 161 8 -142 9 -206 1 -324 -2
-328 -8z"/>
<path d="M4540 2036 l0 -56 -204 0 c-121 0 -207 -4 -211 -10 -3 -5 -6 -31 -6
-57 -1 -79 -4 -83 -62 -83 -37 0 -48 -3 -37 -10 17 -11 166 -11 280 0 71 6 68
7 -50 8 l-125 2 3 65 4 65 266 1 c159 0 259 4 247 9 -11 5 -35 9 -52 9 -33 1
-33 1 -33 50 0 28 -4 53 -10 56 -6 4 -10 -15 -10 -49z"/>
<path d="M137 1943 c-92 -3 -137 -7 -137 -15 0 -8 74 -10 263 -7 l262 4 -3
-75 c-2 -41 -5 -76 -5 -76 -1 -1 -116 -8 -255 -17 -139 -8 -256 -17 -259 -21
-4 -3 -3 -9 0 -13 7 -6 348 11 468 23 50 6 57 4 61 -14 5 -19 12 -19 119 -15
63 3 161 9 219 13 88 7 71 8 -108 7 -246 -2 -220 -16 -224 123 l-3 85 -130 0
c-72 1 -192 -1 -268 -2z"/>
<path d="M78 1503 c-47 -2 -78 -8 -78 -14 0 -12 182 -3 229 11 28 9 2 9 -151
3z"/>
<path d="M254 1315 c0 -55 1 -76 3 -47 2 29 2 74 0 100 -2 26 -3 2 -3 -53z"/>
<path d="M4890 1310 c0 -11 5 -20 10 -20 6 0 10 9 10 20 0 11 -4 20 -10 20 -5
0 -10 -9 -10 -20z"/>
<path d="M3995 1293 c-139 -12 -330 -34 -334 -40 -3 -3 17 -3 44 0 28 3 123
11 213 18 89 7 162 16 162 21 0 8 -6 8 -85 1z"/>
<path d="M4983 1146 c-34 -6 -65 -15 -69 -19 -9 -8 40 -2 146 18 54 11 58 13
25 13 -22 0 -68 -6 -102 -12z"/>
<path d="M4755 1124 c-11 -1 -166 -15 -345 -29 -179 -15 -340 -29 -357 -31
-55 -8 -37 -25 20 -19 110 12 690 65 703 65 8 0 14 5 14 10 0 6 -3 9 -7 9 -5
-1 -17 -3 -28 -5z"/>
<path d="M3838 1013 c6 -2 18 -2 25 0 6 3 1 5 -13 5 -14 0 -19 -2 -12 -5z"/>
<path d="M844 880 c-133 -16 -250 -27 -260 -27 -18 2 -19 -8 -20 -133 -1 -96
1 -122 6 -90 5 25 9 75 9 113 1 60 3 68 24 76 12 5 103 19 202 31 99 12 227
30 285 40 92 15 98 18 50 18 -30 0 -164 -13 -296 -28z"/>
<path d="M4735 720 c-55 -10 -239 -48 -410 -83 -309 -65 -436 -87 -635 -107
-58 -6 -175 -22 -260 -35 -85 -13 -280 -41 -433 -61 l-277 -36 -58 20 c-143
52 -476 121 -529 110 -10 -2 11 -8 47 -12 l65 -8 -25 -20 -25 -20 25 6 c86 20
126 17 267 -18 135 -35 194 -53 183 -56 -3 -1 -32 -8 -65 -15 l-60 -13 70 5
c80 5 201 19 538 63 287 36 309 37 348 8 l30 -23 -143 -22 c-95 -15 -189 -22
-280 -23 -75 0 -139 -4 -142 -9 -3 -5 52 -12 122 -16 106 -5 149 -3 257 15
146 24 236 27 280 10 17 -6 72 -16 124 -21 74 -7 99 -13 117 -30 35 -33 63
-110 81 -224 9 -58 20 -105 26 -105 18 0 -18 205 -48 274 -27 62 -86 103 -225
158 -23 9 -24 10 -7 20 55 30 208 49 477 58 151 5 320 14 375 19 184 19 450
55 433 59 -9 2 -117 -8 -240 -22 -410 -46 -625 -55 -700 -27 -17 6 -11 9 33
15 69 9 571 110 707 142 186 43 156 60 -43 24z m-998 -236 c-3 -3 -12 -4 -19
-1 -8 3 -5 6 6 6 11 1 17 -2 13 -5z m-57 -14 c-36 -11 -52 -11 -45 0 3 6 21
10 38 9 31 -1 31 -1 7 -9z"/>
<path d="M5028 593 c7 -3 16 -2 19 1 4 3 -2 6 -13 5 -11 0 -14 -3 -6 -6z"/>
<path d="M1065 463 c-268 -23 -432 -40 -715 -73 -184 -22 -338 -40 -342 -40
-5 0 -8 -7 -8 -16 0 -14 7 -16 43 -11 115 16 757 87 862 96 66 6 185 13 265
16 80 3 165 9 190 12 43 6 44 7 15 14 -30 7 -237 9 -310 2z"/>
<path d="M4099 399 c112 -43 119 -56 102 -224 -6 -66 -14 -132 -17 -147 -4
-16 -2 -28 4 -28 13 0 18 30 33 176 11 113 11 124 -7 160 -22 45 -81 79 -154
88 -39 6 -34 2 39 -25z"/>
<path d="M1385 318 c-38 -4 -214 -30 -390 -57 -176 -28 -392 -60 -480 -71
-168 -22 -225 -34 -115 -24 97 8 553 70 815 110 156 24 244 33 275 29 40 -6
342 -99 364 -113 6 -3 -116 -29 -270 -57 -645 -119 -699 -130 -653 -133 24 -1
208 28 414 67 402 76 553 97 570 80 5 -5 9 -41 9 -80 -2 -65 -1 -69 21 -69 19
0 23 7 28 43 3 23 2 60 -3 82 -5 22 -8 40 -7 41 1 1 94 21 207 44 113 23 207
44 210 47 6 6 -44 -1 -265 -37 -144 -24 -173 -26 -195 -15 -36 18 -234 73
-358 99 -84 17 -122 20 -177 14z"/>
<path d="M3145 309 c-277 -31 -709 -108 -693 -125 3 -2 126 16 274 41 148 24
348 55 444 69 173 24 155 34 -25 15z"/>
<path d="M4975 293 c-527 -120 -672 -155 -691 -167 -20 -14 -44 -56 -59 -105
-13 -43 18 -18 33 28 8 23 25 49 38 58 26 17 144 46 554 138 140 32 259 62
265 66 15 14 -21 9 -140 -18z"/>
<path d="M3667 211 c-4 -18 -6 -75 -6 -125 l2 -91 8 115 c9 120 7 159 -4 101z"/>
<path d="M273 153 c9 -2 25 -2 35 0 9 3 1 5 -18 5 -19 0 -27 -2 -17 -5z"/>
<path d="M4905 120 c-300 -67 -327 -74 -339 -92 -14 -23 -1 -34 18 -15 15 15
107 39 381 99 77 17 144 34 150 39 16 16 -35 8 -210 -31z"/>
<path d="M193 143 c9 -2 25 -2 35 0 9 3 1 5 -18 5 -19 0 -27 -2 -17 -5z"/>
<path d="M128 133 c6 -2 18 -2 25 0 6 3 1 5 -13 5 -14 0 -19 -2 -12 -5z"/>
</g>
</svg>